<svg xmlns="http://www.w3.org/2000/svg" width="1920" height="1305" viewBox="0 0 1920 1305" fill="none"><g clip-path="url(#clip0_2372_18102)"><rect width="1920" height="13652" transform="translate(0 -133)" fill="#FFDECD"></rect><path d="M2003.04 688.308C1933.47 622.634 1878.51 570.356 1838.15 531.472C1797.78 492.589 1765.61 452.87 1741.62 412.314C1720.23 364.876 1704.89 311.858 1695.59 253.26C1688.9 187.779 1681.85 102.487 1674.42 -2.61599C1599.26 71.2259 1537.49 130.467 1489.12 175.106C1443.35 212.863 1396.75 242.435 1349.31 263.822C1311.36 280.932 1264.39 290.692 1208.4 293.104C1152.4 295.516 1076.6 298.297 980.985 301.448L970.661 297.54C1042.83 356.332 1099.1 405.169 1139.46 444.053C1179.82 482.936 1210.7 526.097 1232.08 573.535C1256.07 614.091 1271.41 667.108 1278.1 732.589C1287.4 791.187 1295.76 873.038 1303.19 978.141C1380.95 897.417 1442.72 838.176 1488.49 800.419C1534.25 762.662 1579.55 736.531 1624.39 722.027C1671.82 700.64 1723.54 688.74 1779.53 686.329C1835.52 683.917 1910.03 684.577 2003.04 688.308Z" fill="#FCD8C6"></path><path d="M769.478 2131.36C693.081 2059.24 632.719 2001.82 588.392 1959.12C544.065 1916.42 508.728 1872.8 482.379 1828.26C458.892 1776.16 442.044 1717.94 431.837 1653.58C424.491 1581.67 416.739 1488 408.581 1372.57C326.037 1453.67 258.204 1518.73 205.082 1567.75C154.821 1609.22 103.642 1641.7 51.5441 1665.18C9.8661 1683.97 -41.7193 1694.69 -103.212 1697.34C-164.704 1699.99 -247.954 1703.04 -352.961 1706.5L-364.3 1702.21C-285.041 1766.78 -223.249 1820.41 -178.922 1863.12C-134.596 1905.82 -100.688 1953.22 -77.2007 2005.32C-50.8521 2049.86 -34.0052 2108.08 -26.6591 2179.99C-16.4521 2244.35 -7.26909 2334.24 0.889007 2449.66C86.294 2361.01 154.127 2295.95 204.388 2254.49C254.649 2213.02 304.398 2184.32 353.635 2168.39C405.732 2144.91 462.527 2131.84 524.02 2129.19C585.512 2126.54 667.332 2127.26 769.478 2131.36Z" fill="#FCD8C6"></path></g><defs><clipPath id="clip0_2372_18102"><rect width="1920" height="13652" fill="white" transform="translate(0 -133)"></rect></clipPath></defs></svg>