<svg xmlns="http://www.w3.org/2000/svg" width="1920" height="1078" viewBox="0 0 1920 1078" fill="none"><g clip-path="url(#clip0_2372_18102)"><rect width="1920" height="13652" transform="translate(0 -1437)" fill="#FFDECD"></rect><path d="M769.478 827.363C693.081 755.238 632.719 697.825 588.392 655.122C544.065 612.42 508.728 568.799 482.379 524.26C458.892 472.162 442.044 413.937 431.837 349.583C424.491 277.671 416.739 184.002 408.581 68.575C326.037 149.67 258.204 214.729 205.082 263.753C154.821 305.219 103.642 337.696 51.5441 361.183C9.8661 379.973 -41.7193 390.692 -103.212 393.341C-164.704 395.989 -247.954 399.044 -352.961 402.505L-364.3 398.213C-285.041 462.779 -223.249 516.413 -178.922 559.116C-134.596 601.818 -100.688 649.219 -77.2007 701.316C-50.8521 745.855 -34.0052 804.081 -26.6591 875.993C-16.4521 940.346 -7.26909 1030.24 0.889007 1145.66C86.294 1057.01 154.127 991.951 204.388 950.485C254.649 909.019 304.398 880.322 353.635 864.393C405.732 840.905 462.527 827.837 524.02 825.189C585.512 822.54 667.332 823.265 769.478 827.363Z" fill="#FCD8C6"></path></g><defs><clipPath id="clip0_2372_18102"><rect width="1920" height="13652" fill="white" transform="translate(0 -1437)"></rect></clipPath></defs></svg>