<svg xmlns="http://www.w3.org/2000/svg" width="472" height="118" viewBox="0 0 472 118" fill="none"><rect width="276" height="36" transform="translate(98 82)" fill="#9F0400"></rect><path d="M161.476 86.8H167.452C169.492 86.8 170.98 87.28 171.916 88.24C172.852 89.176 173.32 90.628 173.32 92.596V93.604C173.32 94.9 173.104 95.956 172.672 96.772C172.264 97.588 171.628 98.176 170.764 98.536V98.608C172.732 99.28 173.716 101.032 173.716 103.864V106.024C173.716 107.968 173.2 109.456 172.168 110.488C171.16 111.496 169.672 112 167.704 112H161.476V86.8ZM166.984 97.06C167.776 97.06 168.364 96.856 168.748 96.448C169.156 96.04 169.36 95.356 169.36 94.396V92.992C169.36 92.08 169.192 91.42 168.856 91.012C168.544 90.604 168.04 90.4 167.344 90.4H165.436V97.06H166.984ZM167.704 108.4C168.4 108.4 168.916 108.22 169.252 107.86C169.588 107.476 169.756 106.828 169.756 105.916V103.72C169.756 102.568 169.552 101.776 169.144 101.344C168.76 100.888 168.112 100.66 167.2 100.66H165.436V108.4H167.704ZM176.031 86.8H179.991V108.4H186.507V112H176.031V86.8ZM191.606 86.8H196.97L201.074 112H197.114L196.394 106.996V107.068H191.894L191.174 112H187.502L191.606 86.8ZM195.926 103.648L194.162 91.192H194.09L192.362 103.648H195.926ZM208.505 112.36C206.609 112.36 205.157 111.82 204.149 110.74C203.165 109.66 202.673 108.136 202.673 106.168V92.632C202.673 90.664 203.165 89.14 204.149 88.06C205.157 86.98 206.609 86.44 208.505 86.44C210.401 86.44 211.841 86.98 212.825 88.06C213.833 89.14 214.337 90.664 214.337 92.632V95.296H210.593V92.38C210.593 90.82 209.933 90.04 208.613 90.04C207.293 90.04 206.633 90.82 206.633 92.38V106.456C206.633 107.992 207.293 108.76 208.613 108.76C209.933 108.76 210.593 107.992 210.593 106.456V102.604H214.337V106.168C214.337 108.136 213.833 109.66 212.825 110.74C211.841 111.82 210.401 112.36 208.505 112.36ZM216.706 86.8H220.666V97.42L225.706 86.8H229.666L224.95 96.052L229.738 112H225.598L222.25 100.768L220.666 103.972V112H216.706V86.8ZM237.378 86.8H247.854V90.4H241.338V97.42H246.45V101.02H241.338V112H237.378V86.8ZM249.753 86.8H255.621C257.661 86.8 259.149 87.28 260.085 88.24C261.021 89.176 261.489 90.628 261.489 92.596V94.144C261.489 96.76 260.625 98.416 258.897 99.112V99.184C259.857 99.472 260.529 100.06 260.913 100.948C261.321 101.836 261.525 103.024 261.525 104.512V108.94C261.525 109.66 261.549 110.248 261.597 110.704C261.645 111.136 261.765 111.568 261.957 112H257.925C257.781 111.592 257.685 111.208 257.637 110.848C257.589 110.488 257.565 109.84 257.565 108.904V104.296C257.565 103.144 257.373 102.34 256.989 101.884C256.629 101.428 255.993 101.2 255.081 101.2H253.713V112H249.753V86.8ZM255.153 97.6C255.945 97.6 256.533 97.396 256.917 96.988C257.325 96.58 257.529 95.896 257.529 94.936V92.992C257.529 92.08 257.361 91.42 257.025 91.012C256.713 90.604 256.209 90.4 255.513 90.4H253.713V97.6H255.153ZM264.273 86.8H268.233V112H264.273V86.8ZM271.199 86.8H277.247C279.215 86.8 280.691 87.328 281.675 88.384C282.659 89.44 283.151 90.988 283.151 93.028V105.772C283.151 107.812 282.659 109.36 281.675 110.416C280.691 111.472 279.215 112 277.247 112H271.199V86.8ZM277.175 108.4C277.823 108.4 278.315 108.208 278.651 107.824C279.011 107.44 279.191 106.816 279.191 105.952V92.848C279.191 91.984 279.011 91.36 278.651 90.976C278.315 90.592 277.823 90.4 277.175 90.4H275.159V108.4H277.175ZM288.813 86.8H294.177L298.281 112H294.321L293.601 106.996V107.068H289.101L288.381 112H284.709L288.813 86.8ZM293.133 103.648L291.369 91.192H291.297L289.569 103.648H293.133ZM302.186 101.272L297.398 86.8H301.61L304.31 96.052H304.382L307.082 86.8H310.934L306.146 101.272V112H302.186V101.272Z" fill="white"></path><path d="M8.72421 40.3533C9.73518 41.6749 10.5407 42.7197 11.1407 43.4879C11.7407 44.2561 12.37 44.8842 13.0284 45.3722C13.8106 45.8275 14.7001 46.1882 15.6971 46.4544C16.8178 46.6879 18.2806 46.9634 20.0854 47.281C18.6728 48.4484 17.5369 49.4103 16.6777 50.1668C15.9422 50.8906 15.3468 51.6436 14.8915 52.4257C14.5273 53.0515 14.2739 53.8465 14.1315 54.8108C13.989 55.7751 13.8046 57.0814 13.5781 58.7298L13.6271 58.9154C12.7399 57.5612 11.9962 56.5 11.3962 55.7318C10.7961 54.9637 10.105 54.3519 9.3229 53.8966C8.66448 53.4086 7.77492 53.0479 6.65419 52.8144C5.65722 52.5482 4.25632 52.2563 2.45148 51.9388C3.98783 50.7387 5.12374 49.7767 5.85923 49.0529C6.59472 48.3291 7.12824 47.5925 7.4598 46.843C7.9151 46.0609 8.21398 45.1876 8.35641 44.2233C8.49885 43.2591 8.62145 41.9691 8.72421 40.3533Z" fill="#6C2523"></path><path d="M462.813 14.3533C461.802 15.6749 460.996 16.7197 460.396 17.4879C459.796 18.2561 459.167 18.8842 458.509 19.3722C457.727 19.8275 456.837 20.1882 455.84 20.4544C454.719 20.6879 453.257 20.9634 451.452 21.281C452.864 22.4484 454 23.4103 454.859 24.1668C455.595 24.8906 456.19 25.6436 456.646 26.4257C457.01 27.0515 457.263 27.8465 457.406 28.8108C457.548 29.7751 457.733 31.0814 457.959 32.7298L457.91 32.9154C458.797 31.5612 459.541 30.5 460.141 29.7318C460.741 28.9637 461.432 28.3519 462.214 27.8966C462.873 27.4086 463.762 27.0479 464.883 26.8144C465.88 26.5482 467.281 26.2563 469.086 25.9388C467.549 24.7387 466.413 23.7767 465.678 23.0529C464.942 22.3291 464.409 21.5925 464.077 20.843C463.622 20.0609 463.323 19.1876 463.181 18.2233C463.038 17.2591 462.916 15.9691 462.813 14.3533Z" fill="#6C2523"></path><path d="M38.1875 60.3075C38.7772 59.9858 39.206 59.2621 39.4741 58.1364C39.7421 56.957 39.9297 55.6973 40.0369 54.3571C40.1441 53.017 40.1977 51.7304 40.1977 50.4974C40.1977 49.2645 40.1977 48.38 40.1977 47.8439V13.4285C40.1977 12.8924 40.1977 12.0079 40.1977 10.7749C40.1977 9.542 40.1441 8.25544 40.0369 6.91528C39.9297 5.57511 39.7421 4.34216 39.4741 3.21642C39.206 2.09068 38.7772 1.36699 38.1875 1.04535H60.7023C62.7929 1.04535 64.696 1.39379 66.4114 2.09068C68.1268 2.73396 69.601 3.67208 70.8339 4.90503C72.0669 6.08437 73.005 7.55855 73.6483 9.32758C74.3452 11.043 74.6936 12.946 74.6936 15.0367C74.6936 18.3067 73.8627 21.121 72.2009 23.4797C70.5391 25.7848 68.1 27.3126 64.8836 28.0631C69.4402 28.5455 72.871 30.2609 75.1761 33.2093C77.5348 36.1041 78.7141 39.7761 78.7141 44.2255C78.7141 49.2645 77.2667 53.2046 74.372 56.0457C71.5308 58.8869 67.5907 60.3075 62.5517 60.3075H38.1875ZM45.1832 27.7414H56.3601C60.8095 27.7414 64.0795 26.7765 66.1702 24.8467C68.3144 22.8632 69.3866 19.5932 69.3866 15.0367C69.3866 10.5337 68.3144 7.31733 66.1702 5.38749C64.0795 3.40404 60.8095 2.41232 56.3601 2.41232H45.1832V27.7414ZM45.1832 58.9405H58.2096C63.0878 58.9405 66.8134 57.7343 69.3866 55.322C72.0133 52.8561 73.3266 49.1573 73.3266 44.2255C73.3266 39.3473 72.0133 35.6216 69.3866 33.0485C66.8134 30.4218 63.0878 29.1084 58.2096 29.1084H45.1832V58.9405Z" fill="#6C2523"></path><path d="M84.8146 51.0603C84.8146 48.5944 85.4579 46.6378 86.7444 45.1904C88.0846 43.6894 89.7464 42.4833 91.7298 41.5719C93.7133 40.607 95.8575 39.8297 98.1626 39.24C100.468 38.5968 102.612 37.9267 104.595 37.2298C106.579 36.4793 108.214 35.5948 109.5 34.5763C110.841 33.5577 111.511 32.1908 111.511 30.4754C111.511 29.028 111.216 27.7414 110.626 26.6157C110.037 25.4363 109.259 24.4446 108.294 23.6405C107.329 22.8364 106.23 22.2199 104.997 21.7911C103.765 21.3622 102.478 21.1478 101.138 21.1478C99.6904 21.1478 98.3503 21.4427 97.1173 22.0323C95.938 22.5684 94.8926 23.3189 93.9813 24.2838C93.1236 25.2487 92.4535 26.3745 91.9711 27.661C91.4886 28.894 91.2474 30.2073 91.2474 31.6011L86.5032 27.0177C88.6475 24.9807 90.9793 23.3457 93.4989 22.1127C96.0184 20.8262 98.8059 20.1829 101.861 20.1829C104.006 20.1829 105.962 20.5313 107.731 21.2282C109.5 21.9251 111.001 22.89 112.234 24.123C113.521 25.3559 114.513 26.8569 115.21 28.6259C115.906 30.395 116.255 32.3784 116.255 34.5763C116.255 35.2196 116.228 36.2649 116.174 37.7123C116.174 39.1596 116.148 40.7678 116.094 42.5369C116.094 44.3059 116.094 46.1821 116.094 48.1656C116.148 50.0954 116.255 51.918 116.416 53.6334C116.577 55.2952 116.791 56.7426 117.059 57.9756C117.381 59.2085 117.809 59.9858 118.346 60.3075L111.511 60.8703V45.4316C111.028 47.4151 110.305 49.3449 109.34 51.2211C108.428 53.0438 107.276 54.6788 105.882 56.1261C104.542 57.5735 102.96 58.7261 101.138 59.5838C99.3688 60.4415 97.3585 60.8703 95.1071 60.8703C91.9979 60.8703 89.5052 60.0394 87.6289 58.3776C85.7527 56.7158 84.8146 54.2767 84.8146 51.0603ZM97.6802 59.1013C99.878 59.1013 101.835 58.4044 103.55 57.0107C105.266 55.5633 106.713 53.7942 107.892 51.7036C109.072 49.6129 109.956 47.3883 110.546 45.0296C111.189 42.6173 111.511 40.4462 111.511 38.5164V33.7722C110.76 34.8979 109.715 35.836 108.375 36.5865C107.088 37.2834 105.668 37.9535 104.113 38.5968C102.612 39.1864 101.057 39.8029 99.4492 40.4462C97.841 41.0359 96.3936 41.8132 95.1071 42.7781C93.8205 43.6894 92.7752 44.8419 91.9711 46.2357C91.167 47.5759 90.7649 49.2913 90.7649 51.382C90.7649 53.5798 91.3546 55.4293 92.5339 56.9302C93.7133 58.3776 95.4287 59.1013 97.6802 59.1013Z" fill="#6C2523"></path><path d="M125.743 60.3075C126.44 59.8786 126.949 58.7261 127.271 56.8498C127.593 54.9736 127.753 51.9716 127.753 47.8439V12.4635C127.753 10.4265 127.7 8.73788 127.593 7.39771C127.539 6.00394 127.432 4.8782 127.271 4.0205C127.11 3.10919 126.896 2.4391 126.628 2.01025C126.36 1.5814 126.065 1.25976 125.743 1.04533L132.498 0V47.8439C132.498 51.9716 132.658 54.9736 132.98 56.8498C133.302 58.7261 133.838 59.8786 134.588 60.3075H125.743Z" fill="#6C2523"></path><path d="M141.998 60.3075C142.695 59.8786 143.204 58.7261 143.526 56.8498C143.847 54.9736 144.008 51.9716 144.008 47.8439V12.4635C144.008 10.4265 143.955 8.73788 143.847 7.39771C143.794 6.00394 143.687 4.8782 143.526 4.0205C143.365 3.10919 143.151 2.4391 142.882 2.01025C142.614 1.5814 142.32 1.25976 141.998 1.04533L148.752 0V47.8439C148.752 51.9716 148.913 54.9736 149.235 56.8498C149.557 58.7261 150.093 59.8786 150.843 60.3075H141.998Z" fill="#6C2523"></path><path d="M193.231 49.3717C192.909 50.3902 192.347 51.5696 191.542 52.9097C190.738 54.1963 189.666 55.4293 188.326 56.6086C187.039 57.7879 185.485 58.8065 183.662 59.6642C181.893 60.4683 179.829 60.8703 177.471 60.8703C174.737 60.8703 172.164 60.3879 169.751 59.4229C167.393 58.4044 165.329 56.9838 163.56 55.1612C161.791 53.3386 160.397 51.1943 159.378 48.7284C158.36 46.2089 157.851 43.475 157.851 40.5266C157.851 37.5246 158.28 34.7907 159.137 32.3248C160.049 29.8053 161.308 27.661 162.917 25.892C164.525 24.0694 166.428 22.6756 168.626 21.7107C170.877 20.6922 173.37 20.1829 176.104 20.1829C178.462 20.1829 180.66 20.5849 182.697 21.389C184.734 22.1395 186.503 23.2385 188.004 24.6859C189.505 26.1332 190.685 27.9022 191.542 29.9929C192.4 32.0836 192.829 34.4155 192.829 36.9886H163.64C163.587 37.3638 163.56 37.7391 163.56 38.1143C163.56 38.436 163.56 38.7576 163.56 39.0792C163.56 42.4564 163.989 45.3512 164.846 47.7635C165.758 50.1758 166.937 52.1861 168.384 53.7943C169.832 55.3488 171.494 56.5014 173.37 57.2519C175.3 58.0024 177.283 58.3776 179.32 58.3776C181.411 58.3776 183.207 58.0292 184.708 57.3323C186.262 56.5818 187.576 55.6973 188.648 54.6788C189.773 53.6602 190.631 52.6149 191.221 51.5428C191.864 50.4706 192.293 49.5861 192.507 48.8892L193.231 49.3717ZM176.506 21.1478C174.254 21.1478 172.351 21.5767 170.797 22.4344C169.242 23.2385 167.956 24.3374 166.937 25.7312C165.918 27.0713 165.168 28.6527 164.686 30.4754C164.203 32.2444 163.881 34.0938 163.721 36.0237H187.281C187.334 33.9866 187.2 32.0568 186.879 30.2341C186.557 28.4115 185.967 26.8301 185.11 25.49C184.306 24.1498 183.18 23.1045 181.732 22.354C180.339 21.5499 178.596 21.1478 176.506 21.1478Z" fill="#6C2523"></path><path d="M225.512 49.3717C225.191 50.3902 224.762 51.5696 224.226 52.9097C223.69 54.1963 222.966 55.4293 222.055 56.6086C221.144 57.7879 220.018 58.8065 218.678 59.6642C217.391 60.4683 215.81 60.8703 213.933 60.8703C212.111 60.8703 210.503 60.5219 209.109 59.825C207.769 59.0745 206.643 58.0828 205.732 56.8498C204.82 55.5633 204.15 54.0891 203.721 52.4273C203.293 50.7119 203.078 48.916 203.078 47.0398V21.7107H197.53V20.7458C198.816 20.7458 200.023 20.4509 201.148 19.8613C202.274 19.218 203.239 18.3871 204.043 17.3685C204.901 16.2964 205.571 15.0635 206.053 13.6697C206.589 12.2223 206.857 10.6945 206.857 9.0863H207.822V20.7458H221.733V21.7107H207.822V40.5266C207.822 43.3678 207.93 45.9141 208.144 48.1656C208.358 50.3634 208.734 52.2397 209.27 53.7943C209.859 55.2952 210.637 56.4478 211.602 57.2519C212.62 58.0024 213.88 58.3776 215.381 58.3776C217.096 58.3776 218.49 58.0292 219.562 57.3323C220.688 56.5818 221.599 55.6973 222.296 54.6788C222.993 53.6602 223.529 52.6149 223.904 51.5428C224.28 50.4706 224.574 49.5861 224.789 48.8892L225.512 49.3717Z" fill="#6C2523"></path><path d="M261.866 15.1214L266.208 7H271.434L262.67 15.443L261.866 15.1214ZM284.38 49.6173C284.059 50.6358 283.496 51.8151 282.692 53.1553C281.888 54.4419 280.816 55.6748 279.475 56.8542C278.189 58.0335 276.634 59.052 274.812 59.9097C273.043 60.7138 270.979 61.1159 268.62 61.1159C265.886 61.1159 263.313 60.6334 260.901 59.6685C258.542 58.65 256.478 57.2294 254.709 55.4068C252.94 53.5842 251.546 51.4399 250.528 48.974C249.509 46.4545 249 43.7205 249 40.7722C249 37.7702 249.429 35.0363 250.287 32.5704C251.198 30.0508 252.458 27.9066 254.066 26.1376C255.674 24.3149 257.577 22.9212 259.775 21.9562C262.026 20.9377 264.519 20.4285 267.253 20.4285C269.612 20.4285 271.81 20.8305 273.847 21.6346C275.884 22.3851 277.653 23.484 279.154 24.9314C280.655 26.3788 281.834 28.1478 282.692 30.2385C283.549 32.3291 283.978 34.661 283.978 37.2341H254.79C254.736 37.6094 254.709 37.9846 254.709 38.3599C254.709 38.6815 254.709 39.0032 254.709 39.3248C254.709 42.702 255.138 45.5968 255.996 48.0091C256.907 50.4214 258.086 52.4316 259.534 54.0398C260.981 55.5944 262.643 56.7469 264.519 57.4974C266.449 58.2479 268.432 58.6232 270.469 58.6232C272.56 58.6232 274.356 58.2747 275.857 57.5779C277.412 56.8274 278.725 55.9429 279.797 54.9243C280.923 53.9058 281.78 52.8605 282.37 51.7883C283.013 50.7162 283.442 49.8317 283.657 49.1348L284.38 49.6173ZM267.655 21.3934C265.404 21.3934 263.501 21.8222 261.946 22.6799C260.391 23.484 259.105 24.583 258.086 25.9768C257.068 27.3169 256.317 28.8983 255.835 30.7209C255.352 32.49 255.031 34.3394 254.87 36.2692H278.43C278.484 34.2322 278.35 32.3023 278.028 30.4797C277.706 28.6571 277.117 27.0757 276.259 25.7355C275.455 24.3953 274.329 23.35 272.882 22.5995C271.488 21.7954 269.746 21.3934 267.655 21.3934Z" fill="#6C2523"></path><path d="M341.059 50.9557C341.695 52.693 342.203 54.1548 342.585 55.3413C343.008 56.4853 343.368 57.4175 343.665 58.1378C344.004 58.8581 344.279 59.409 344.491 59.7903C344.746 60.1293 345 60.3835 345.254 60.553H338.263C338.813 60.214 339.004 59.3454 338.835 57.9471C338.665 56.5065 338.03 54.176 336.928 50.9557L334.449 43.8372H315.572L313.856 48.6041C313.178 50.5532 312.733 52.2481 312.522 53.6887C312.31 55.1294 312.246 56.337 312.331 57.3116C312.416 58.2437 312.585 58.9853 312.839 59.5361C313.136 60.0446 313.411 60.3835 313.666 60.553H307.119C307.373 60.3835 307.649 60.1081 307.945 59.7268C308.284 59.303 308.666 58.6886 309.089 57.8836C309.471 57.0785 309.916 56.0828 310.424 54.8963C310.933 53.6676 311.483 52.1634 312.077 50.3837L325.17 13.2022H327.839L341.059 50.9557ZM334.068 42.7568L324.979 16.9522L315.954 42.7568H334.068Z" fill="#6C2523"></path><path d="M349.187 60.553C349.738 60.214 350.141 59.303 350.395 57.82C350.649 56.337 350.776 53.9642 350.776 50.7015V22.736C350.776 21.1258 350.734 19.7911 350.649 18.7318C350.607 17.6301 350.522 16.7403 350.395 16.0624C350.268 15.342 350.098 14.8124 349.886 14.4734C349.674 14.1344 349.441 13.8802 349.187 13.7107L354.526 12.8845V50.7015C354.526 53.9642 354.653 56.337 354.907 57.82C355.162 59.303 355.585 60.214 356.179 60.553H349.187Z" fill="#6C2523"></path><path d="M367.374 38.5619C368.349 35.6806 369.789 33.3502 371.696 31.5705C373.645 29.7485 375.891 28.8375 378.433 28.8375C381.188 28.8375 383.412 29.6426 385.107 31.2527C386.802 32.8205 387.755 35.2993 387.967 38.689C388.433 37.2484 389.026 35.9349 389.747 34.7484C390.509 33.5197 391.357 32.4815 392.289 31.6341C393.264 30.7443 394.323 30.0663 395.467 29.6002C396.611 29.0918 397.819 28.8375 399.09 28.8375C402.013 28.8375 404.323 29.7485 406.018 31.5705C407.755 33.3925 408.623 36.2738 408.623 40.2144V50.7651C408.623 53.9854 408.751 56.337 409.005 57.82C409.259 59.303 409.662 60.214 410.212 60.553H403.221C403.814 60.214 404.238 59.303 404.492 57.82C404.746 56.337 404.873 53.9642 404.873 50.7015V40.2144C404.873 39.028 404.768 37.8628 404.556 36.7187C404.344 35.5323 403.962 34.473 403.412 33.5408C402.903 32.6087 402.183 31.846 401.251 31.2527C400.318 30.6595 399.132 30.3629 397.691 30.3629C396.124 30.3629 394.725 30.7867 393.497 31.6341C392.31 32.4815 391.293 33.6044 390.446 35.0027C389.641 36.4009 389.026 38.0111 388.603 39.8331C388.221 41.6127 388.031 43.4347 388.031 45.2991V50.7651C388.031 53.9854 388.158 56.337 388.412 57.82C388.666 59.303 389.069 60.214 389.62 60.553H382.628C383.221 60.214 383.645 59.303 383.899 57.82C384.154 56.337 384.281 53.9642 384.281 50.7015V40.2144C384.281 39.028 384.175 37.8628 383.963 36.7187C383.751 35.5323 383.37 34.473 382.819 33.5408C382.268 32.6087 381.526 31.846 380.594 31.2527C379.662 30.6595 378.497 30.3629 377.099 30.3629C375.531 30.3629 374.133 30.7867 372.904 31.6341C371.675 32.4815 370.658 33.6044 369.853 35.0027C369.048 36.4009 368.434 38.0111 368.01 39.8331C367.586 41.6127 367.374 43.4347 367.374 45.2991V50.7015C367.374 53.9642 367.501 56.337 367.756 57.82C368.01 59.303 368.434 60.214 369.027 60.553H362.035C362.586 60.214 362.989 59.303 363.243 57.82C363.497 56.337 363.624 53.9642 363.624 50.7015V39.1339C363.624 35.9137 363.497 33.562 363.243 32.079C362.989 30.5536 362.586 29.6214 362.035 29.2824L367.374 28.8375C367.374 29.6002 367.374 30.4689 367.374 31.4434C367.459 33.0959 367.459 35.4688 367.374 38.5619Z" fill="#6C2523"></path><path d="M415.525 53.2438C415.525 51.2947 416.033 49.7482 417.05 48.6041C418.11 47.4177 419.423 46.4643 420.991 45.744C422.559 44.9813 424.254 44.3669 426.076 43.9008C427.898 43.3923 429.592 42.8627 431.16 42.3119C432.728 41.7186 434.02 41.0195 435.037 40.2144C436.097 39.4094 436.626 38.3289 436.626 36.973C436.626 35.8289 436.393 34.812 435.927 33.9222C435.461 32.99 434.847 32.2061 434.084 31.5705C433.321 30.935 432.453 30.4477 431.478 30.1087C430.503 29.7697 429.487 29.6002 428.427 29.6002C427.283 29.6002 426.224 29.8333 425.249 30.2994C424.317 30.7231 423.491 31.3163 422.771 32.079C422.093 32.8417 421.563 33.7315 421.182 34.7484C420.8 35.723 420.61 36.7611 420.61 37.8628L416.86 34.24C418.555 32.6298 420.398 31.3375 422.389 30.3629C424.381 29.346 426.584 28.8375 428.999 28.8375C430.694 28.8375 432.241 29.113 433.639 29.6638C435.037 30.2146 436.224 30.9773 437.198 31.9519C438.215 32.9264 438.999 34.1129 439.55 35.5111C440.101 36.9094 440.376 38.4772 440.376 40.2144C440.376 40.7229 440.355 41.5492 440.313 42.6932C440.313 43.8372 440.291 45.1084 440.249 46.5067C440.249 47.905 440.249 49.388 440.249 50.9557C440.291 52.4811 440.376 53.9218 440.503 55.2777C440.63 56.5912 440.8 57.7353 441.012 58.7098C441.266 59.6844 441.605 60.2988 442.029 60.553L436.626 60.9979V48.7948C436.245 50.3625 435.673 51.8879 434.91 53.371C434.19 54.8116 433.279 56.104 432.177 57.248C431.118 58.392 429.868 59.303 428.427 59.981C427.029 60.659 425.44 60.9979 423.66 60.9979C421.203 60.9979 419.232 60.3412 417.749 59.0276C416.266 57.7141 415.525 55.7862 415.525 53.2438ZM425.694 59.5997C427.431 59.5997 428.978 59.0488 430.334 57.9471C431.69 56.8031 432.834 55.4048 433.766 53.7523C434.698 52.0998 435.397 50.3414 435.863 48.477C436.372 46.5702 436.626 44.8542 436.626 43.3288V39.5789C436.033 40.4687 435.207 41.2102 434.147 41.8034C433.13 42.3542 432.008 42.8839 430.779 43.3923C429.592 43.8584 428.364 44.3457 427.092 44.8542C425.821 45.3203 424.677 45.9347 423.66 46.6974C422.643 47.4177 421.817 48.3287 421.182 49.4304C420.546 50.4897 420.228 51.8456 420.228 53.4981C420.228 55.2353 420.694 56.6972 421.626 57.8836C422.559 59.0276 423.915 59.5997 425.694 59.5997Z" fill="#6C2523"></path></svg>