<svg xmlns="http://www.w3.org/2000/svg" width="347" height="135" viewBox="0 0 347 135" fill="none"><g clip-path="url(#clip0_1297_208)"><path d="M98.3789 66.409C100.341 66.409 101.02 67.1258 101.02 68.7481C101.02 70.3325 100.227 71.0682 98.3977 71.0682H95.5871V66.409H98.3789ZM98.5486 72.2188C101.02 72.2188 102.359 70.8041 102.359 68.7292C102.359 66.3713 101.057 65.2207 98.5109 65.2207H94.229V76.5385H95.5871V72.2188H98.5486Z" fill="white"></path><path d="M122.494 66.409C124.55 66.409 125.21 67.107 125.21 68.484C125.21 69.9176 124.211 70.6344 122.494 70.6344H119.608V66.409H122.494ZM125.663 76.5385H127.229V76.331L123.664 71.7284C125.569 71.4077 126.568 70.2382 126.568 68.4651C126.568 66.4468 125.399 65.2207 122.626 65.2207H118.231V76.5385H119.608V71.8227H122.268L125.663 76.5385Z" fill="white"></path><path d="M148.242 76.746C151.845 76.746 153.806 74.3315 153.806 70.8607C153.806 67.3711 151.807 65.0132 148.242 65.0132C144.695 65.0132 142.677 67.3711 142.677 70.8607C142.677 74.3315 144.658 76.746 148.242 76.746ZM148.242 75.5387C145.375 75.5387 144.035 73.6147 144.035 70.8607C144.035 68.1256 145.412 66.2393 148.242 66.2393C151.09 66.2393 152.448 68.1256 152.448 70.8607C152.448 73.6147 151.109 75.5387 148.242 75.5387Z" fill="white"></path><path d="M174.333 76.7271C176.597 76.7271 177.804 75.4821 178.294 73.9542H178.445V76.5385H179.728V70.8607H174.654V72.0491H178.426V72.2566V72.2188C178.426 73.9542 177.634 75.5387 174.691 75.5387C171.787 75.5387 170.56 73.8033 170.56 71.0116C170.56 68.1256 171.692 66.2393 174.616 66.2393C176.672 66.2393 177.842 67.2767 178.313 69.4271L179.596 69.1442C179.124 66.5788 177.521 65.0132 174.597 65.0132C170.994 65.0132 169.183 67.4276 169.183 71.0116C169.183 74.7842 171.202 76.7271 174.333 76.7271Z" fill="white"></path><path d="M200.451 66.409C202.507 66.409 203.167 67.107 203.167 68.484C203.167 69.9176 202.168 70.6344 200.451 70.6344H197.565V66.409H200.451ZM203.62 76.5385H205.186V76.331L201.621 71.7284C203.526 71.4077 204.526 70.2382 204.526 68.4651C204.526 66.4468 203.356 65.2207 200.583 65.2207H196.188V76.5385H197.565V71.8227H200.225L203.62 76.5385Z" fill="white"></path><path d="M221.351 76.5385H228.972V75.3124H222.728V71.37H228.312V70.1628H222.728V66.4468H228.972V65.2207H221.351V76.5385Z" fill="white"></path><path d="M249.557 76.746C252.556 76.746 253.782 75.4444 253.782 73.5204C253.782 71.9548 252.952 70.8418 249.764 70.2382C247.18 69.7289 246.577 69.031 246.577 67.9935C246.577 66.8618 247.425 66.1638 249.198 66.1638C251.085 66.1638 251.764 67.0127 252.141 68.6537L253.499 68.3708C253.047 66.3336 251.934 65.0132 249.255 65.0132C246.577 65.0132 245.237 66.2204 245.237 68.069C245.237 69.7101 246.237 70.8607 249.312 71.4077C251.632 71.8227 252.424 72.4075 252.424 73.6147C252.424 74.8031 251.575 75.5953 249.595 75.5953C247.425 75.5953 246.331 74.5579 246.011 72.6527L244.709 72.9356C245.03 75.2181 246.463 76.7271 249.557 76.746Z" fill="white"></path><path d="M274.075 76.746C277.074 76.746 278.3 75.4444 278.3 73.5204C278.3 71.9548 277.47 70.8418 274.283 70.2382C271.698 69.7289 271.095 69.031 271.095 67.9935C271.095 66.8618 271.944 66.1638 273.717 66.1638C275.603 66.1638 276.282 67.0127 276.659 68.6537L278.017 68.3708C277.565 66.3336 276.452 65.0132 273.773 65.0132C271.095 65.0132 269.755 66.2204 269.755 68.069C269.755 69.7101 270.755 70.8607 273.83 71.4077C276.15 71.8227 276.942 72.4075 276.942 73.6147C276.942 74.8031 276.093 75.5953 274.113 75.5953C271.944 75.5953 270.85 74.5579 270.529 72.6527L269.227 72.9356C269.548 75.2181 270.982 76.7271 274.075 76.746Z" fill="white"></path><path d="M108.592 31.642C112.962 31.642 114.455 33.2941 114.455 36.2253C114.455 38.9432 112.696 40.8085 108.912 40.8085H100.492V31.642H108.592ZM107.953 18.1588C111.683 18.1588 113.176 19.5977 113.176 22.6355C113.176 26.0996 111.044 27.3785 107.686 27.3785H100.492V18.1588H107.953ZM94.4163 45.3918H109.072C117.173 45.3918 120.424 41.8744 120.424 36.7049C120.424 32.1749 118.079 30.1498 112.536 29.5635V29.0306C116.586 28.0713 118.985 25.7264 118.985 21.5695C118.985 16.1336 115.521 13.4156 107.846 13.4156H94.4163V45.3918Z" fill="white"></path><path d="M136.051 46.0846C143.992 46.0846 148.682 41.0217 148.682 32.8145C148.682 24.5539 143.726 19.7042 136.051 19.7042C128.271 19.7042 123.314 24.5539 123.314 32.8145C123.314 41.0217 128.004 46.0846 136.051 46.0846ZM135.998 24.5539C140.635 24.5539 142.98 27.5917 142.98 32.7612C142.98 37.9306 140.741 41.1283 135.998 41.1283C131.202 41.1283 129.07 37.9306 129.07 32.7612C129.07 27.5917 131.362 24.5539 135.998 24.5539Z" fill="white"></path><path d="M163.614 40.9684C159.35 40.9684 157.432 38.357 157.432 32.9743C157.432 27.4851 159.457 24.8737 163.614 24.8737C167.504 24.8737 170.009 27.7516 170.009 32.0684V33.9869C170.009 38.2504 167.451 40.9684 163.614 40.9684ZM170.009 45.3918H175.712V11.1772H170.009V26.8989H169.636C168.357 22.5288 165.586 19.6509 161.056 19.7042C155.193 19.6509 151.783 24.3941 151.783 32.9743C151.783 41.448 155.14 46.0846 160.896 46.0846C165.373 46.0846 168.357 43.1001 169.636 38.7833H170.009V45.3918Z" fill="white"></path><path d="M182.862 54.7182C188.618 54.7182 191.709 51.9469 194.267 45.7115L204.606 20.3438H198.477L195.76 29.5103C194.8 32.6013 193.574 36.5983 192.455 40.3289H191.603C190.537 36.7049 189.151 32.548 188.139 29.4037L185.207 20.3438H178.919L188.991 45.1254C187.339 48.9092 185.847 49.6021 183.022 49.6021C181.956 49.6021 180.891 49.4422 179.825 49.229L178.919 54.3984C180.091 54.5583 181.21 54.7182 182.862 54.7182Z" fill="white"></path><path d="M220.026 18.4785C227.7 18.4785 230.844 21.6228 230.844 29.1372C230.844 36.3318 227.86 40.3822 220.345 40.3822H213.897V18.4785H220.026ZM207.821 45.3918H220.825C230.844 45.3918 236.92 39.263 236.92 29.1372C236.92 19.0114 231.857 13.4156 220.825 13.4156H207.821V45.3918Z" fill="white"></path><path d="M249.752 41.4479C246.501 41.4479 245.382 39.9024 245.382 38.0904C245.382 36.012 247.034 34.9461 249.912 34.9461H256.414V35.9587C256.414 39.103 253.749 41.4479 249.752 41.4479ZM256.68 45.3917H262.116V29.4036C262.116 23.1682 259.025 19.7574 251.777 19.7574C245.382 19.7574 241.811 22.7952 240.852 27.5383L246.288 28.764C246.928 25.8329 248.633 24.3407 251.564 24.3407C255.082 24.3407 256.414 26.2059 256.414 29.4569V31.1623H248.953C242.611 31.1623 239.893 34.4132 239.893 38.8898C239.893 43.7928 243.037 45.9246 247.514 45.9246C251.937 45.9246 254.815 43.4731 256.094 39.4228H256.68V45.3917Z" fill="white"></path><path d="M273.63 31.2157C273.63 27.4318 276.188 24.8737 280.025 24.8737C283.49 24.8737 284.822 27.112 284.822 30.1498V45.3918H290.524V28.6576C290.524 23.2216 288.02 19.7042 282.797 19.7042C278.587 19.7042 275.389 22.3156 274.003 26.9522H273.524V20.3437H267.928V45.3918H273.63V31.2157Z" fill="white"></path><path d="M313.507 30.0965L318.89 29.0839C317.877 23.115 314.626 19.7042 307.432 19.7042C299.757 19.7042 294.801 24.6605 294.801 33.0809C294.801 41.5013 299.651 46.0846 307.538 46.0846C314.413 46.0846 317.931 42.5672 318.943 36.7582L313.667 35.4791C312.921 38.5169 311.535 41.0217 307.485 41.0217C303.008 41.0217 300.663 37.9306 300.663 32.8678C300.663 27.3785 303.222 24.7671 307.325 24.7671C311.269 24.7671 312.761 26.8989 313.507 30.0965Z" fill="white"></path><path d="M334.595 24.1276C338.592 24.1276 340.511 26.3659 340.724 30.6827H327.88C328.413 26.2061 330.705 24.1276 334.595 24.1276ZM334.755 46.0313C341.47 46.0313 344.614 42.9402 345.787 38.4103L340.884 37.0247C340.191 39.4229 338.805 41.3414 334.808 41.3414C330.545 41.3414 328.253 39.0498 327.827 34.5199H345.893C346 33.2408 346 32.1216 346 31.1624C346 24.2875 342.323 19.7042 334.755 19.7042C326.921 19.7042 322.125 24.7138 322.125 33.1875C322.125 41.5546 327.081 46.0313 334.755 46.0313Z" fill="white"></path><mask id="mask0_1297_208" style="mask-type:luminance" maskUnits="userSpaceOnUse" x="92" y="9" width="256" height="48"><path d="M347.416 10.1772H93.4163V56.1772H347.416V10.1772Z" fill="white" stroke="white" stroke-width="1.02196"></path><path d="M108.592 31.642C112.962 31.642 114.455 33.2941 114.455 36.2253C114.455 38.9432 112.696 40.8085 108.912 40.8085H100.492V31.642H108.592ZM107.953 18.1588C111.683 18.1588 113.176 19.5977 113.176 22.6355C113.176 26.0996 111.044 27.3785 107.686 27.3785H100.492V18.1588H107.953ZM94.4163 45.3918H109.072C117.173 45.3918 120.424 41.8744 120.424 36.7049C120.424 32.1749 118.079 30.1498 112.536 29.5635V29.0306C116.586 28.0713 118.985 25.7264 118.985 21.5695C118.985 16.1336 115.521 13.4156 107.846 13.4156H94.4163V45.3918Z" stroke="white" stroke-width="1.02196"></path><path d="M136.051 46.0846C143.992 46.0846 148.682 41.0217 148.682 32.8145C148.682 24.5539 143.726 19.7042 136.051 19.7042C128.271 19.7042 123.314 24.5539 123.314 32.8145C123.314 41.0217 128.004 46.0846 136.051 46.0846ZM135.998 24.5539C140.635 24.5539 142.98 27.5917 142.98 32.7612C142.98 37.9306 140.741 41.1283 135.998 41.1283C131.202 41.1283 129.07 37.9306 129.07 32.7612C129.07 27.5917 131.362 24.5539 135.998 24.5539Z" stroke="white" stroke-width="1.02196"></path><path d="M163.614 40.9684C159.35 40.9684 157.432 38.357 157.432 32.9743C157.432 27.4851 159.457 24.8737 163.614 24.8737C167.504 24.8737 170.009 27.7516 170.009 32.0684V33.9869C170.009 38.2504 167.451 40.9684 163.614 40.9684ZM170.009 45.3918H175.712V11.1772H170.009V26.8989H169.636C168.357 22.5288 165.586 19.6509 161.056 19.7042C155.193 19.6509 151.783 24.3941 151.783 32.9743C151.783 41.448 155.14 46.0846 160.896 46.0846C165.373 46.0846 168.357 43.1001 169.636 38.7833H170.009V45.3918Z" stroke="white" stroke-width="1.02196"></path><path d="M182.862 54.7182C188.618 54.7182 191.709 51.9469 194.267 45.7115L204.606 20.3438H198.477L195.76 29.5103C194.8 32.6013 193.574 36.5983 192.455 40.3289H191.603C190.537 36.7049 189.151 32.548 188.139 29.4037L185.207 20.3438H178.919L188.991 45.1254C187.339 48.9092 185.847 49.6021 183.022 49.6021C181.956 49.6021 180.891 49.4422 179.825 49.229L178.919 54.3984C180.091 54.5583 181.21 54.7182 182.862 54.7182Z" stroke="white" stroke-width="1.02196"></path><path d="M220.026 18.4785C227.7 18.4785 230.844 21.6228 230.844 29.1372C230.844 36.3318 227.86 40.3822 220.345 40.3822H213.897V18.4785H220.026ZM207.821 45.3918H220.825C230.844 45.3918 236.92 39.263 236.92 29.1372C236.92 19.0114 231.857 13.4156 220.825 13.4156H207.821V45.3918Z" stroke="white" stroke-width="1.02196"></path><path d="M249.752 41.4481C246.501 41.4481 245.382 39.9026 245.382 38.0906C245.382 36.0122 247.034 34.9463 249.912 34.9463H256.414V35.9589C256.414 39.1032 253.749 41.4481 249.752 41.4481ZM256.68 45.3919H262.116V29.4038C262.116 23.1684 259.025 19.7576 251.777 19.7576C245.382 19.7576 241.811 22.7954 240.852 27.5385L246.288 28.7642C246.928 25.8331 248.633 24.3409 251.564 24.3409C255.082 24.3409 256.414 26.2061 256.414 29.4571V31.1625H248.953C242.611 31.1625 239.893 34.4134 239.893 38.89C239.893 43.793 243.037 45.9248 247.514 45.9248C251.937 45.9248 254.815 43.4733 256.094 39.423H256.68V45.3919Z" stroke="white" stroke-width="1.02196"></path><path d="M273.63 31.2157C273.63 27.4318 276.188 24.8737 280.025 24.8737C283.49 24.8737 284.822 27.112 284.822 30.1498V45.3918H290.524V28.6576C290.524 23.2216 288.02 19.7042 282.797 19.7042C278.587 19.7042 275.389 22.3156 274.003 26.9522H273.524V20.3437H267.928V45.3918H273.63V31.2157Z" stroke="white" stroke-width="1.02196"></path><path d="M313.507 30.0965L318.89 29.0839C317.877 23.115 314.626 19.7042 307.432 19.7042C299.757 19.7042 294.801 24.6605 294.801 33.0809C294.801 41.5013 299.651 46.0846 307.538 46.0846C314.413 46.0846 317.931 42.5672 318.943 36.7582L313.667 35.4791C312.921 38.5169 311.535 41.0217 307.485 41.0217C303.008 41.0217 300.663 37.9306 300.663 32.8678C300.663 27.3785 303.222 24.7671 307.325 24.7671C311.269 24.7671 312.761 26.8989 313.507 30.0965Z" stroke="white" stroke-width="1.02196"></path><path d="M334.595 24.1276C338.592 24.1276 340.511 26.3659 340.724 30.6827H327.88C328.413 26.2061 330.705 24.1276 334.595 24.1276ZM334.755 46.0313C341.47 46.0313 344.614 42.9402 345.787 38.4103L340.884 37.0247C340.191 39.4229 338.805 41.3414 334.808 41.3414C330.545 41.3414 328.253 39.0498 327.827 34.5199H345.893C346 33.2408 346 32.1216 346 31.1624C346 24.2875 342.323 19.7042 334.755 19.7042C326.921 19.7042 322.125 24.7138 322.125 33.1875C322.125 41.5546 327.081 46.0313 334.755 46.0313Z" stroke="white" stroke-width="1.02196"></path></mask><g mask="url(#mask0_1297_208)"><path d="M108.592 31.642C112.962 31.642 114.455 33.2941 114.455 36.2253C114.455 38.9432 112.696 40.8085 108.912 40.8085H100.492V31.642H108.592ZM107.953 18.1588C111.683 18.1588 113.176 19.5977 113.176 22.6355C113.176 26.0996 111.044 27.3785 107.686 27.3785H100.492V18.1588H107.953ZM94.4163 45.3918H109.072C117.173 45.3918 120.424 41.8744 120.424 36.7049C120.424 32.1749 118.079 30.1498 112.536 29.5635V29.0306C116.586 28.0713 118.985 25.7264 118.985 21.5695C118.985 16.1336 115.521 13.4156 107.846 13.4156H94.4163V45.3918Z" stroke="white" stroke-width="1.02196"></path></g><mask id="mask1_1297_208" style="mask-type:luminance" maskUnits="userSpaceOnUse" x="92" y="9" width="256" height="48"><path d="M347.416 10.1772H93.4163V56.1772H347.416V10.1772Z" fill="white" stroke="white" stroke-width="1.02196"></path><path d="M108.592 31.642C112.962 31.642 114.455 33.2941 114.455 36.2253C114.455 38.9432 112.696 40.8085 108.912 40.8085H100.492V31.642H108.592ZM107.953 18.1588C111.683 18.1588 113.176 19.5977 113.176 22.6355C113.176 26.0996 111.044 27.3785 107.686 27.3785H100.492V18.1588H107.953ZM94.4163 45.3918H109.072C117.173 45.3918 120.424 41.8744 120.424 36.7049C120.424 32.1749 118.079 30.1498 112.536 29.5635V29.0306C116.586 28.0713 118.985 25.7264 118.985 21.5695C118.985 16.1336 115.521 13.4156 107.846 13.4156H94.4163V45.3918Z" stroke="white" stroke-width="1.02196"></path><path d="M136.051 46.0846C143.992 46.0846 148.682 41.0217 148.682 32.8145C148.682 24.5539 143.726 19.7042 136.051 19.7042C128.271 19.7042 123.314 24.5539 123.314 32.8145C123.314 41.0217 128.004 46.0846 136.051 46.0846ZM135.998 24.5539C140.635 24.5539 142.98 27.5917 142.98 32.7612C142.98 37.9306 140.741 41.1283 135.998 41.1283C131.202 41.1283 129.07 37.9306 129.07 32.7612C129.07 27.5917 131.362 24.5539 135.998 24.5539Z" stroke="white" stroke-width="1.02196"></path><path d="M163.614 40.9684C159.35 40.9684 157.432 38.357 157.432 32.9743C157.432 27.4851 159.457 24.8737 163.614 24.8737C167.504 24.8737 170.009 27.7516 170.009 32.0684V33.9869C170.009 38.2504 167.451 40.9684 163.614 40.9684ZM170.009 45.3918H175.712V11.1772H170.009V26.8989H169.636C168.357 22.5288 165.586 19.6509 161.056 19.7042C155.193 19.6509 151.783 24.3941 151.783 32.9743C151.783 41.448 155.14 46.0846 160.896 46.0846C165.373 46.0846 168.357 43.1001 169.636 38.7833H170.009V45.3918Z" stroke="white" stroke-width="1.02196"></path><path d="M182.862 54.7182C188.618 54.7182 191.709 51.9469 194.267 45.7115L204.606 20.3438H198.477L195.76 29.5103C194.8 32.6013 193.574 36.5983 192.455 40.3289H191.603C190.537 36.7049 189.151 32.548 188.139 29.4037L185.207 20.3438H178.919L188.991 45.1254C187.339 48.9092 185.847 49.6021 183.022 49.6021C181.956 49.6021 180.891 49.4422 179.825 49.229L178.919 54.3984C180.091 54.5583 181.21 54.7182 182.862 54.7182Z" stroke="white" stroke-width="1.02196"></path><path d="M220.026 18.4785C227.7 18.4785 230.844 21.6228 230.844 29.1372C230.844 36.3318 227.86 40.3822 220.345 40.3822H213.897V18.4785H220.026ZM207.821 45.3918H220.825C230.844 45.3918 236.92 39.263 236.92 29.1372C236.92 19.0114 231.857 13.4156 220.825 13.4156H207.821V45.3918Z" stroke="white" stroke-width="1.02196"></path><path d="M249.752 41.4481C246.501 41.4481 245.382 39.9026 245.382 38.0906C245.382 36.0122 247.034 34.9463 249.912 34.9463H256.414V35.9589C256.414 39.1032 253.749 41.4481 249.752 41.4481ZM256.68 45.3919H262.116V29.4038C262.116 23.1684 259.025 19.7576 251.777 19.7576C245.382 19.7576 241.811 22.7954 240.852 27.5385L246.288 28.7642C246.928 25.8331 248.633 24.3409 251.564 24.3409C255.082 24.3409 256.414 26.2061 256.414 29.4571V31.1625H248.953C242.611 31.1625 239.893 34.4134 239.893 38.89C239.893 43.793 243.037 45.9248 247.514 45.9248C251.937 45.9248 254.815 43.4733 256.094 39.423H256.68V45.3919Z" stroke="white" stroke-width="1.02196"></path><path d="M273.63 31.2157C273.63 27.4318 276.188 24.8737 280.025 24.8737C283.49 24.8737 284.822 27.112 284.822 30.1498V45.3918H290.524V28.6576C290.524 23.2216 288.02 19.7042 282.797 19.7042C278.587 19.7042 275.389 22.3156 274.003 26.9522H273.524V20.3437H267.928V45.3918H273.63V31.2157Z" stroke="white" stroke-width="1.02196"></path><path d="M313.507 30.0965L318.89 29.0839C317.877 23.115 314.626 19.7042 307.432 19.7042C299.757 19.7042 294.801 24.6605 294.801 33.0809C294.801 41.5013 299.651 46.0846 307.538 46.0846C314.413 46.0846 317.931 42.5672 318.943 36.7582L313.667 35.4791C312.921 38.5169 311.535 41.0217 307.485 41.0217C303.008 41.0217 300.663 37.9306 300.663 32.8678C300.663 27.3785 303.222 24.7671 307.325 24.7671C311.269 24.7671 312.761 26.8989 313.507 30.0965Z" stroke="white" stroke-width="1.02196"></path><path d="M334.595 24.1276C338.592 24.1276 340.511 26.3659 340.724 30.6827H327.88C328.413 26.2061 330.705 24.1276 334.595 24.1276ZM334.755 46.0313C341.47 46.0313 344.614 42.9402 345.787 38.4103L340.884 37.0247C340.191 39.4229 338.805 41.3414 334.808 41.3414C330.545 41.3414 328.253 39.0498 327.827 34.5199H345.893C346 33.2408 346 32.1216 346 31.1624C346 24.2875 342.323 19.7042 334.755 19.7042C326.921 19.7042 322.125 24.7138 322.125 33.1875C322.125 41.5546 327.081 46.0313 334.755 46.0313Z" stroke="white" stroke-width="1.02196"></path></mask><g mask="url(#mask1_1297_208)"><path d="M136.051 46.0846C143.992 46.0846 148.682 41.0217 148.682 32.8145C148.682 24.5539 143.726 19.7042 136.051 19.7042C128.271 19.7042 123.314 24.5539 123.314 32.8145C123.314 41.0217 128.004 46.0846 136.051 46.0846ZM135.998 24.5539C140.635 24.5539 142.98 27.5917 142.98 32.7612C142.98 37.9306 140.741 41.1283 135.998 41.1283C131.202 41.1283 129.07 37.9306 129.07 32.7612C129.07 27.5917 131.362 24.5539 135.998 24.5539Z" stroke="white" stroke-width="1.02196"></path></g><mask id="mask2_1297_208" style="mask-type:luminance" maskUnits="userSpaceOnUse" x="92" y="9" width="256" height="48"><path d="M347.416 10.1772H93.4163V56.1772H347.416V10.1772Z" fill="white" stroke="white" stroke-width="1.02196"></path><path d="M108.592 31.642C112.962 31.642 114.455 33.2941 114.455 36.2253C114.455 38.9432 112.696 40.8085 108.912 40.8085H100.492V31.642H108.592ZM107.953 18.1588C111.683 18.1588 113.176 19.5977 113.176 22.6355C113.176 26.0996 111.044 27.3785 107.686 27.3785H100.492V18.1588H107.953ZM94.4163 45.3918H109.072C117.173 45.3918 120.424 41.8744 120.424 36.7049C120.424 32.1749 118.079 30.1498 112.536 29.5635V29.0306C116.586 28.0713 118.985 25.7264 118.985 21.5695C118.985 16.1336 115.521 13.4156 107.846 13.4156H94.4163V45.3918Z" stroke="white" stroke-width="1.02196"></path><path d="M136.051 46.0846C143.992 46.0846 148.682 41.0217 148.682 32.8145C148.682 24.5539 143.726 19.7042 136.051 19.7042C128.271 19.7042 123.314 24.5539 123.314 32.8145C123.314 41.0217 128.004 46.0846 136.051 46.0846ZM135.998 24.5539C140.635 24.5539 142.98 27.5917 142.98 32.7612C142.98 37.9306 140.741 41.1283 135.998 41.1283C131.202 41.1283 129.07 37.9306 129.07 32.7612C129.07 27.5917 131.362 24.5539 135.998 24.5539Z" stroke="white" stroke-width="1.02196"></path><path d="M163.614 40.9684C159.35 40.9684 157.432 38.357 157.432 32.9743C157.432 27.4851 159.457 24.8737 163.614 24.8737C167.504 24.8737 170.009 27.7516 170.009 32.0684V33.9869C170.009 38.2504 167.451 40.9684 163.614 40.9684ZM170.009 45.3918H175.712V11.1772H170.009V26.8989H169.636C168.357 22.5288 165.586 19.6509 161.056 19.7042C155.193 19.6509 151.783 24.3941 151.783 32.9743C151.783 41.448 155.14 46.0846 160.896 46.0846C165.373 46.0846 168.357 43.1001 169.636 38.7833H170.009V45.3918Z" stroke="white" stroke-width="1.02196"></path><path d="M182.862 54.7182C188.618 54.7182 191.709 51.9469 194.267 45.7115L204.606 20.3438H198.477L195.76 29.5103C194.8 32.6013 193.574 36.5983 192.455 40.3289H191.603C190.537 36.7049 189.151 32.548 188.139 29.4037L185.207 20.3438H178.919L188.991 45.1254C187.339 48.9092 185.847 49.6021 183.022 49.6021C181.956 49.6021 180.891 49.4422 179.825 49.229L178.919 54.3984C180.091 54.5583 181.21 54.7182 182.862 54.7182Z" stroke="white" stroke-width="1.02196"></path><path d="M220.026 18.4785C227.7 18.4785 230.844 21.6228 230.844 29.1372C230.844 36.3318 227.86 40.3822 220.345 40.3822H213.897V18.4785H220.026ZM207.821 45.3918H220.825C230.844 45.3918 236.92 39.263 236.92 29.1372C236.92 19.0114 231.857 13.4156 220.825 13.4156H207.821V45.3918Z" stroke="white" stroke-width="1.02196"></path><path d="M249.752 41.4481C246.501 41.4481 245.382 39.9026 245.382 38.0906C245.382 36.0122 247.034 34.9463 249.912 34.9463H256.414V35.9589C256.414 39.1032 253.749 41.4481 249.752 41.4481ZM256.68 45.3919H262.116V29.4038C262.116 23.1684 259.025 19.7576 251.777 19.7576C245.382 19.7576 241.811 22.7954 240.852 27.5385L246.288 28.7642C246.928 25.8331 248.633 24.3409 251.564 24.3409C255.082 24.3409 256.414 26.2061 256.414 29.4571V31.1625H248.953C242.611 31.1625 239.893 34.4134 239.893 38.89C239.893 43.793 243.037 45.9248 247.514 45.9248C251.937 45.9248 254.815 43.4733 256.094 39.423H256.68V45.3919Z" stroke="white" stroke-width="1.02196"></path><path d="M273.63 31.2157C273.63 27.4318 276.188 24.8737 280.025 24.8737C283.49 24.8737 284.822 27.112 284.822 30.1498V45.3918H290.524V28.6576C290.524 23.2216 288.02 19.7042 282.797 19.7042C278.587 19.7042 275.389 22.3156 274.003 26.9522H273.524V20.3437H267.928V45.3918H273.63V31.2157Z" stroke="white" stroke-width="1.02196"></path><path d="M313.507 30.0965L318.89 29.0839C317.877 23.115 314.626 19.7042 307.432 19.7042C299.757 19.7042 294.801 24.6605 294.801 33.0809C294.801 41.5013 299.651 46.0846 307.538 46.0846C314.413 46.0846 317.931 42.5672 318.943 36.7582L313.667 35.4791C312.921 38.5169 311.535 41.0217 307.485 41.0217C303.008 41.0217 300.663 37.9306 300.663 32.8678C300.663 27.3785 303.222 24.7671 307.325 24.7671C311.269 24.7671 312.761 26.8989 313.507 30.0965Z" stroke="white" stroke-width="1.02196"></path><path d="M334.595 24.1276C338.592 24.1276 340.511 26.3659 340.724 30.6827H327.88C328.413 26.2061 330.705 24.1276 334.595 24.1276ZM334.755 46.0313C341.47 46.0313 344.614 42.9402 345.787 38.4103L340.884 37.0247C340.191 39.4229 338.805 41.3414 334.808 41.3414C330.545 41.3414 328.253 39.0498 327.827 34.5199H345.893C346 33.2408 346 32.1216 346 31.1624C346 24.2875 342.323 19.7042 334.755 19.7042C326.921 19.7042 322.125 24.7138 322.125 33.1875C322.125 41.5546 327.081 46.0313 334.755 46.0313Z" stroke="white" stroke-width="1.02196"></path></mask><g mask="url(#mask2_1297_208)"><path d="M163.614 40.9684C159.35 40.9684 157.432 38.357 157.432 32.9743C157.432 27.4851 159.457 24.8737 163.614 24.8737C167.504 24.8737 170.009 27.7516 170.009 32.0684V33.9869C170.009 38.2504 167.451 40.9684 163.614 40.9684ZM170.009 45.3918H175.712V11.1772H170.009V26.8989H169.636C168.357 22.5288 165.586 19.6509 161.056 19.7042C155.193 19.6509 151.783 24.3941 151.783 32.9743C151.783 41.448 155.14 46.0846 160.896 46.0846C165.373 46.0846 168.357 43.1001 169.636 38.7833H170.009V45.3918Z" stroke="white" stroke-width="1.02196"></path></g><mask id="mask3_1297_208" style="mask-type:luminance" maskUnits="userSpaceOnUse" x="92" y="9" width="256" height="48"><path d="M347.416 10.1772H93.4163V56.1772H347.416V10.1772Z" fill="white" stroke="white" stroke-width="1.02196"></path><path d="M108.592 31.642C112.962 31.642 114.455 33.2941 114.455 36.2253C114.455 38.9432 112.696 40.8085 108.912 40.8085H100.492V31.642H108.592ZM107.953 18.1588C111.683 18.1588 113.176 19.5977 113.176 22.6355C113.176 26.0996 111.044 27.3785 107.686 27.3785H100.492V18.1588H107.953ZM94.4163 45.3918H109.072C117.173 45.3918 120.424 41.8744 120.424 36.7049C120.424 32.1749 118.079 30.1498 112.536 29.5635V29.0306C116.586 28.0713 118.985 25.7264 118.985 21.5695C118.985 16.1336 115.521 13.4156 107.846 13.4156H94.4163V45.3918Z" stroke="white" stroke-width="1.02196"></path><path d="M136.051 46.0846C143.992 46.0846 148.682 41.0217 148.682 32.8145C148.682 24.5539 143.726 19.7042 136.051 19.7042C128.271 19.7042 123.314 24.5539 123.314 32.8145C123.314 41.0217 128.004 46.0846 136.051 46.0846ZM135.998 24.5539C140.635 24.5539 142.98 27.5917 142.98 32.7612C142.98 37.9306 140.741 41.1283 135.998 41.1283C131.202 41.1283 129.07 37.9306 129.07 32.7612C129.07 27.5917 131.362 24.5539 135.998 24.5539Z" stroke="white" stroke-width="1.02196"></path><path d="M163.614 40.9684C159.35 40.9684 157.432 38.357 157.432 32.9743C157.432 27.4851 159.457 24.8737 163.614 24.8737C167.504 24.8737 170.009 27.7516 170.009 32.0684V33.9869C170.009 38.2504 167.451 40.9684 163.614 40.9684ZM170.009 45.3918H175.712V11.1772H170.009V26.8989H169.636C168.357 22.5288 165.586 19.6509 161.056 19.7042C155.193 19.6509 151.783 24.3941 151.783 32.9743C151.783 41.448 155.14 46.0846 160.896 46.0846C165.373 46.0846 168.357 43.1001 169.636 38.7833H170.009V45.3918Z" stroke="white" stroke-width="1.02196"></path><path d="M182.862 54.7182C188.618 54.7182 191.709 51.9469 194.267 45.7115L204.606 20.3438H198.477L195.76 29.5103C194.8 32.6013 193.574 36.5983 192.455 40.3289H191.603C190.537 36.7049 189.151 32.548 188.139 29.4037L185.207 20.3438H178.919L188.991 45.1254C187.339 48.9092 185.847 49.6021 183.022 49.6021C181.956 49.6021 180.891 49.4422 179.825 49.229L178.919 54.3984C180.091 54.5583 181.21 54.7182 182.862 54.7182Z" stroke="white" stroke-width="1.02196"></path><path d="M220.026 18.4785C227.7 18.4785 230.844 21.6228 230.844 29.1372C230.844 36.3318 227.86 40.3822 220.345 40.3822H213.897V18.4785H220.026ZM207.821 45.3918H220.825C230.844 45.3918 236.92 39.263 236.92 29.1372C236.92 19.0114 231.857 13.4156 220.825 13.4156H207.821V45.3918Z" stroke="white" stroke-width="1.02196"></path><path d="M249.752 41.4481C246.501 41.4481 245.382 39.9026 245.382 38.0906C245.382 36.0122 247.034 34.9463 249.912 34.9463H256.414V35.9589C256.414 39.1032 253.749 41.4481 249.752 41.4481ZM256.68 45.3919H262.116V29.4038C262.116 23.1684 259.025 19.7576 251.777 19.7576C245.382 19.7576 241.811 22.7954 240.852 27.5385L246.288 28.7642C246.928 25.8331 248.633 24.3409 251.564 24.3409C255.082 24.3409 256.414 26.2061 256.414 29.4571V31.1625H248.953C242.611 31.1625 239.893 34.4134 239.893 38.89C239.893 43.793 243.037 45.9248 247.514 45.9248C251.937 45.9248 254.815 43.4733 256.094 39.423H256.68V45.3919Z" stroke="white" stroke-width="1.02196"></path><path d="M273.63 31.2157C273.63 27.4318 276.188 24.8737 280.025 24.8737C283.49 24.8737 284.822 27.112 284.822 30.1498V45.3918H290.524V28.6576C290.524 23.2216 288.02 19.7042 282.797 19.7042C278.587 19.7042 275.389 22.3156 274.003 26.9522H273.524V20.3437H267.928V45.3918H273.63V31.2157Z" stroke="white" stroke-width="1.02196"></path><path d="M313.507 30.0965L318.89 29.0839C317.877 23.115 314.626 19.7042 307.432 19.7042C299.757 19.7042 294.801 24.6605 294.801 33.0809C294.801 41.5013 299.651 46.0846 307.538 46.0846C314.413 46.0846 317.931 42.5672 318.943 36.7582L313.667 35.4791C312.921 38.5169 311.535 41.0217 307.485 41.0217C303.008 41.0217 300.663 37.9306 300.663 32.8678C300.663 27.3785 303.222 24.7671 307.325 24.7671C311.269 24.7671 312.761 26.8989 313.507 30.0965Z" stroke="white" stroke-width="1.02196"></path><path d="M334.595 24.1276C338.592 24.1276 340.511 26.3659 340.724 30.6827H327.88C328.413 26.2061 330.705 24.1276 334.595 24.1276ZM334.755 46.0313C341.47 46.0313 344.614 42.9402 345.787 38.4103L340.884 37.0247C340.191 39.4229 338.805 41.3414 334.808 41.3414C330.545 41.3414 328.253 39.0498 327.827 34.5199H345.893C346 33.2408 346 32.1216 346 31.1624C346 24.2875 342.323 19.7042 334.755 19.7042C326.921 19.7042 322.125 24.7138 322.125 33.1875C322.125 41.5546 327.081 46.0313 334.755 46.0313Z" stroke="white" stroke-width="1.02196"></path></mask><g mask="url(#mask3_1297_208)"><path d="M182.862 54.7182C188.618 54.7182 191.709 51.9469 194.267 45.7115L204.606 20.3438H198.477L195.76 29.5103C194.8 32.6013 193.574 36.5983 192.455 40.3289H191.603C190.537 36.7049 189.151 32.548 188.139 29.4037L185.207 20.3438H178.919L188.991 45.1254C187.339 48.9092 185.847 49.6021 183.022 49.6021C181.956 49.6021 180.891 49.4422 179.825 49.229L178.919 54.3984C180.091 54.5583 181.21 54.7182 182.862 54.7182Z" stroke="white" stroke-width="1.02196"></path></g><mask id="mask4_1297_208" style="mask-type:luminance" maskUnits="userSpaceOnUse" x="92" y="9" width="256" height="48"><path d="M347.416 10.1772H93.4163V56.1772H347.416V10.1772Z" fill="white" stroke="white" stroke-width="1.02196"></path><path d="M108.592 31.642C112.962 31.642 114.455 33.2941 114.455 36.2253C114.455 38.9432 112.696 40.8085 108.912 40.8085H100.492V31.642H108.592ZM107.953 18.1588C111.683 18.1588 113.176 19.5977 113.176 22.6355C113.176 26.0996 111.044 27.3785 107.686 27.3785H100.492V18.1588H107.953ZM94.4163 45.3918H109.072C117.173 45.3918 120.424 41.8744 120.424 36.7049C120.424 32.1749 118.079 30.1498 112.536 29.5635V29.0306C116.586 28.0713 118.985 25.7264 118.985 21.5695C118.985 16.1336 115.521 13.4156 107.846 13.4156H94.4163V45.3918Z" stroke="white" stroke-width="1.02196"></path><path d="M136.051 46.0846C143.992 46.0846 148.682 41.0217 148.682 32.8145C148.682 24.5539 143.726 19.7042 136.051 19.7042C128.271 19.7042 123.314 24.5539 123.314 32.8145C123.314 41.0217 128.004 46.0846 136.051 46.0846ZM135.998 24.5539C140.635 24.5539 142.98 27.5917 142.98 32.7612C142.98 37.9306 140.741 41.1283 135.998 41.1283C131.202 41.1283 129.07 37.9306 129.07 32.7612C129.07 27.5917 131.362 24.5539 135.998 24.5539Z" stroke="white" stroke-width="1.02196"></path><path d="M163.614 40.9684C159.35 40.9684 157.432 38.357 157.432 32.9743C157.432 27.4851 159.457 24.8737 163.614 24.8737C167.504 24.8737 170.009 27.7516 170.009 32.0684V33.9869C170.009 38.2504 167.451 40.9684 163.614 40.9684ZM170.009 45.3918H175.712V11.1772H170.009V26.8989H169.636C168.357 22.5288 165.586 19.6509 161.056 19.7042C155.193 19.6509 151.783 24.3941 151.783 32.9743C151.783 41.448 155.14 46.0846 160.896 46.0846C165.373 46.0846 168.357 43.1001 169.636 38.7833H170.009V45.3918Z" stroke="white" stroke-width="1.02196"></path><path d="M182.862 54.7182C188.618 54.7182 191.709 51.9469 194.267 45.7115L204.606 20.3438H198.477L195.76 29.5103C194.8 32.6013 193.574 36.5983 192.455 40.3289H191.603C190.537 36.7049 189.151 32.548 188.139 29.4037L185.207 20.3438H178.919L188.991 45.1254C187.339 48.9092 185.847 49.6021 183.022 49.6021C181.956 49.6021 180.891 49.4422 179.825 49.229L178.919 54.3984C180.091 54.5583 181.21 54.7182 182.862 54.7182Z" stroke="white" stroke-width="1.02196"></path><path d="M220.026 18.4785C227.7 18.4785 230.844 21.6228 230.844 29.1372C230.844 36.3318 227.86 40.3822 220.345 40.3822H213.897V18.4785H220.026ZM207.821 45.3918H220.825C230.844 45.3918 236.92 39.263 236.92 29.1372C236.92 19.0114 231.857 13.4156 220.825 13.4156H207.821V45.3918Z" stroke="white" stroke-width="1.02196"></path><path d="M249.752 41.4481C246.501 41.4481 245.382 39.9026 245.382 38.0906C245.382 36.0122 247.034 34.9463 249.912 34.9463H256.414V35.9589C256.414 39.1032 253.749 41.4481 249.752 41.4481ZM256.68 45.3919H262.116V29.4038C262.116 23.1684 259.025 19.7576 251.777 19.7576C245.382 19.7576 241.811 22.7954 240.852 27.5385L246.288 28.7642C246.928 25.8331 248.633 24.3409 251.564 24.3409C255.082 24.3409 256.414 26.2061 256.414 29.4571V31.1625H248.953C242.611 31.1625 239.893 34.4134 239.893 38.89C239.893 43.793 243.037 45.9248 247.514 45.9248C251.937 45.9248 254.815 43.4733 256.094 39.423H256.68V45.3919Z" stroke="white" stroke-width="1.02196"></path><path d="M273.63 31.2157C273.63 27.4318 276.188 24.8737 280.025 24.8737C283.49 24.8737 284.822 27.112 284.822 30.1498V45.3918H290.524V28.6576C290.524 23.2216 288.02 19.7042 282.797 19.7042C278.587 19.7042 275.389 22.3156 274.003 26.9522H273.524V20.3437H267.928V45.3918H273.63V31.2157Z" stroke="white" stroke-width="1.02196"></path><path d="M313.507 30.0965L318.89 29.0839C317.877 23.115 314.626 19.7042 307.432 19.7042C299.757 19.7042 294.801 24.6605 294.801 33.0809C294.801 41.5013 299.651 46.0846 307.538 46.0846C314.413 46.0846 317.931 42.5672 318.943 36.7582L313.667 35.4791C312.921 38.5169 311.535 41.0217 307.485 41.0217C303.008 41.0217 300.663 37.9306 300.663 32.8678C300.663 27.3785 303.222 24.7671 307.325 24.7671C311.269 24.7671 312.761 26.8989 313.507 30.0965Z" stroke="white" stroke-width="1.02196"></path><path d="M334.595 24.1276C338.592 24.1276 340.511 26.3659 340.724 30.6827H327.88C328.413 26.2061 330.705 24.1276 334.595 24.1276ZM334.755 46.0313C341.47 46.0313 344.614 42.9402 345.787 38.4103L340.884 37.0247C340.191 39.4229 338.805 41.3414 334.808 41.3414C330.545 41.3414 328.253 39.0498 327.827 34.5199H345.893C346 33.2408 346 32.1216 346 31.1624C346 24.2875 342.323 19.7042 334.755 19.7042C326.921 19.7042 322.125 24.7138 322.125 33.1875C322.125 41.5546 327.081 46.0313 334.755 46.0313Z" stroke="white" stroke-width="1.02196"></path></mask><g mask="url(#mask4_1297_208)"><path d="M220.026 18.4785C227.7 18.4785 230.844 21.6228 230.844 29.1372C230.844 36.3318 227.86 40.3822 220.345 40.3822H213.897V18.4785H220.026ZM207.821 45.3918H220.825C230.844 45.3918 236.92 39.263 236.92 29.1372C236.92 19.0114 231.857 13.4156 220.825 13.4156H207.821V45.3918Z" stroke="white" stroke-width="1.02196"></path></g><mask id="mask5_1297_208" style="mask-type:luminance" maskUnits="userSpaceOnUse" x="92" y="9" width="256" height="48"><path d="M347.416 10.1772H93.4163V56.1772H347.416V10.1772Z" fill="white" stroke="white" stroke-width="1.02196"></path><path d="M108.592 31.642C112.962 31.642 114.455 33.2941 114.455 36.2253C114.455 38.9432 112.696 40.8085 108.912 40.8085H100.492V31.642H108.592ZM107.953 18.1588C111.683 18.1588 113.176 19.5977 113.176 22.6355C113.176 26.0996 111.044 27.3785 107.686 27.3785H100.492V18.1588H107.953ZM94.4163 45.3918H109.072C117.173 45.3918 120.424 41.8744 120.424 36.7049C120.424 32.1749 118.079 30.1498 112.536 29.5635V29.0306C116.586 28.0713 118.985 25.7264 118.985 21.5695C118.985 16.1336 115.521 13.4156 107.846 13.4156H94.4163V45.3918Z" stroke="white" stroke-width="1.02196"></path><path d="M136.051 46.0846C143.992 46.0846 148.682 41.0217 148.682 32.8145C148.682 24.5539 143.726 19.7042 136.051 19.7042C128.271 19.7042 123.314 24.5539 123.314 32.8145C123.314 41.0217 128.004 46.0846 136.051 46.0846ZM135.998 24.5539C140.635 24.5539 142.98 27.5917 142.98 32.7612C142.98 37.9306 140.741 41.1283 135.998 41.1283C131.202 41.1283 129.07 37.9306 129.07 32.7612C129.07 27.5917 131.362 24.5539 135.998 24.5539Z" stroke="white" stroke-width="1.02196"></path><path d="M163.614 40.9684C159.35 40.9684 157.432 38.357 157.432 32.9743C157.432 27.4851 159.457 24.8737 163.614 24.8737C167.504 24.8737 170.009 27.7516 170.009 32.0684V33.9869C170.009 38.2504 167.451 40.9684 163.614 40.9684ZM170.009 45.3918H175.712V11.1772H170.009V26.8989H169.636C168.357 22.5288 165.586 19.6509 161.056 19.7042C155.193 19.6509 151.783 24.3941 151.783 32.9743C151.783 41.448 155.14 46.0846 160.896 46.0846C165.373 46.0846 168.357 43.1001 169.636 38.7833H170.009V45.3918Z" stroke="white" stroke-width="1.02196"></path><path d="M182.862 54.7182C188.618 54.7182 191.709 51.9469 194.267 45.7115L204.606 20.3438H198.477L195.76 29.5103C194.8 32.6013 193.574 36.5983 192.455 40.3289H191.603C190.537 36.7049 189.151 32.548 188.139 29.4037L185.207 20.3438H178.919L188.991 45.1254C187.339 48.9092 185.847 49.6021 183.022 49.6021C181.956 49.6021 180.891 49.4422 179.825 49.229L178.919 54.3984C180.091 54.5583 181.21 54.7182 182.862 54.7182Z" stroke="white" stroke-width="1.02196"></path><path d="M220.026 18.4785C227.7 18.4785 230.844 21.6228 230.844 29.1372C230.844 36.3318 227.86 40.3822 220.345 40.3822H213.897V18.4785H220.026ZM207.821 45.3918H220.825C230.844 45.3918 236.92 39.263 236.92 29.1372C236.92 19.0114 231.857 13.4156 220.825 13.4156H207.821V45.3918Z" stroke="white" stroke-width="1.02196"></path><path d="M249.752 41.4481C246.501 41.4481 245.382 39.9026 245.382 38.0906C245.382 36.0122 247.034 34.9463 249.912 34.9463H256.414V35.9589C256.414 39.1032 253.749 41.4481 249.752 41.4481ZM256.68 45.3919H262.116V29.4038C262.116 23.1684 259.025 19.7576 251.777 19.7576C245.382 19.7576 241.811 22.7954 240.852 27.5385L246.288 28.7642C246.928 25.8331 248.633 24.3409 251.564 24.3409C255.082 24.3409 256.414 26.2061 256.414 29.4571V31.1625H248.953C242.611 31.1625 239.893 34.4134 239.893 38.89C239.893 43.793 243.037 45.9248 247.514 45.9248C251.937 45.9248 254.815 43.4733 256.094 39.423H256.68V45.3919Z" stroke="white" stroke-width="1.02196"></path><path d="M273.63 31.2157C273.63 27.4318 276.188 24.8737 280.025 24.8737C283.49 24.8737 284.822 27.112 284.822 30.1498V45.3918H290.524V28.6576C290.524 23.2216 288.02 19.7042 282.797 19.7042C278.587 19.7042 275.389 22.3156 274.003 26.9522H273.524V20.3437H267.928V45.3918H273.63V31.2157Z" stroke="white" stroke-width="1.02196"></path><path d="M313.507 30.0965L318.89 29.0839C317.877 23.115 314.626 19.7042 307.432 19.7042C299.757 19.7042 294.801 24.6605 294.801 33.0809C294.801 41.5013 299.651 46.0846 307.538 46.0846C314.413 46.0846 317.931 42.5672 318.943 36.7582L313.667 35.4791C312.921 38.5169 311.535 41.0217 307.485 41.0217C303.008 41.0217 300.663 37.9306 300.663 32.8678C300.663 27.3785 303.222 24.7671 307.325 24.7671C311.269 24.7671 312.761 26.8989 313.507 30.0965Z" stroke="white" stroke-width="1.02196"></path><path d="M334.595 24.1276C338.592 24.1276 340.511 26.3659 340.724 30.6827H327.88C328.413 26.2061 330.705 24.1276 334.595 24.1276ZM334.755 46.0313C341.47 46.0313 344.614 42.9402 345.787 38.4103L340.884 37.0247C340.191 39.4229 338.805 41.3414 334.808 41.3414C330.545 41.3414 328.253 39.0498 327.827 34.5199H345.893C346 33.2408 346 32.1216 346 31.1624C346 24.2875 342.323 19.7042 334.755 19.7042C326.921 19.7042 322.125 24.7138 322.125 33.1875C322.125 41.5546 327.081 46.0313 334.755 46.0313Z" stroke="white" stroke-width="1.02196"></path></mask><g mask="url(#mask5_1297_208)"><path d="M249.752 41.4481C246.501 41.4481 245.382 39.9026 245.382 38.0906C245.382 36.0122 247.034 34.9463 249.912 34.9463H256.414V35.9589C256.414 39.1032 253.749 41.4481 249.752 41.4481ZM256.68 45.3919H262.116V29.4038C262.116 23.1684 259.025 19.7576 251.777 19.7576C245.382 19.7576 241.811 22.7954 240.852 27.5385L246.288 28.7642C246.928 25.8331 248.633 24.3409 251.564 24.3409C255.082 24.3409 256.414 26.2061 256.414 29.4571V31.1625H248.953C242.611 31.1625 239.893 34.4134 239.893 38.89C239.893 43.793 243.037 45.9248 247.514 45.9248C251.937 45.9248 254.815 43.4733 256.094 39.423H256.68V45.3919Z" stroke="white" stroke-width="1.02196"></path></g><mask id="mask6_1297_208" style="mask-type:luminance" maskUnits="userSpaceOnUse" x="92" y="9" width="256" height="48"><path d="M347.416 10.1772H93.4163V56.1772H347.416V10.1772Z" fill="white" stroke="white" stroke-width="1.02196"></path><path d="M108.592 31.642C112.962 31.642 114.455 33.2941 114.455 36.2253C114.455 38.9432 112.696 40.8085 108.912 40.8085H100.492V31.642H108.592ZM107.953 18.1588C111.683 18.1588 113.176 19.5977 113.176 22.6355C113.176 26.0996 111.044 27.3785 107.686 27.3785H100.492V18.1588H107.953ZM94.4163 45.3918H109.072C117.173 45.3918 120.424 41.8744 120.424 36.7049C120.424 32.1749 118.079 30.1498 112.536 29.5635V29.0306C116.586 28.0713 118.985 25.7264 118.985 21.5695C118.985 16.1336 115.521 13.4156 107.846 13.4156H94.4163V45.3918Z" stroke="white" stroke-width="1.02196"></path><path d="M136.051 46.0846C143.992 46.0846 148.682 41.0217 148.682 32.8145C148.682 24.5539 143.726 19.7042 136.051 19.7042C128.271 19.7042 123.314 24.5539 123.314 32.8145C123.314 41.0217 128.004 46.0846 136.051 46.0846ZM135.998 24.5539C140.635 24.5539 142.98 27.5917 142.98 32.7612C142.98 37.9306 140.741 41.1283 135.998 41.1283C131.202 41.1283 129.07 37.9306 129.07 32.7612C129.07 27.5917 131.362 24.5539 135.998 24.5539Z" stroke="white" stroke-width="1.02196"></path><path d="M163.614 40.9684C159.35 40.9684 157.432 38.357 157.432 32.9743C157.432 27.4851 159.457 24.8737 163.614 24.8737C167.504 24.8737 170.009 27.7516 170.009 32.0684V33.9869C170.009 38.2504 167.451 40.9684 163.614 40.9684ZM170.009 45.3918H175.712V11.1772H170.009V26.8989H169.636C168.357 22.5288 165.586 19.6509 161.056 19.7042C155.193 19.6509 151.783 24.3941 151.783 32.9743C151.783 41.448 155.14 46.0846 160.896 46.0846C165.373 46.0846 168.357 43.1001 169.636 38.7833H170.009V45.3918Z" stroke="white" stroke-width="1.02196"></path><path d="M182.862 54.7182C188.618 54.7182 191.709 51.9469 194.267 45.7115L204.606 20.3438H198.477L195.76 29.5103C194.8 32.6013 193.574 36.5983 192.455 40.3289H191.603C190.537 36.7049 189.151 32.548 188.139 29.4037L185.207 20.3438H178.919L188.991 45.1254C187.339 48.9092 185.847 49.6021 183.022 49.6021C181.956 49.6021 180.891 49.4422 179.825 49.229L178.919 54.3984C180.091 54.5583 181.21 54.7182 182.862 54.7182Z" stroke="white" stroke-width="1.02196"></path><path d="M220.026 18.4785C227.7 18.4785 230.844 21.6228 230.844 29.1372C230.844 36.3318 227.86 40.3822 220.345 40.3822H213.897V18.4785H220.026ZM207.821 45.3918H220.825C230.844 45.3918 236.92 39.263 236.92 29.1372C236.92 19.0114 231.857 13.4156 220.825 13.4156H207.821V45.3918Z" stroke="white" stroke-width="1.02196"></path><path d="M249.752 41.4481C246.501 41.4481 245.382 39.9026 245.382 38.0906C245.382 36.0122 247.034 34.9463 249.912 34.9463H256.414V35.9589C256.414 39.1032 253.749 41.4481 249.752 41.4481ZM256.68 45.3919H262.116V29.4038C262.116 23.1684 259.025 19.7576 251.777 19.7576C245.382 19.7576 241.811 22.7954 240.852 27.5385L246.288 28.7642C246.928 25.8331 248.633 24.3409 251.564 24.3409C255.082 24.3409 256.414 26.2061 256.414 29.4571V31.1625H248.953C242.611 31.1625 239.893 34.4134 239.893 38.89C239.893 43.793 243.037 45.9248 247.514 45.9248C251.937 45.9248 254.815 43.4733 256.094 39.423H256.68V45.3919Z" stroke="white" stroke-width="1.02196"></path><path d="M273.63 31.2157C273.63 27.4318 276.188 24.8737 280.025 24.8737C283.49 24.8737 284.822 27.112 284.822 30.1498V45.3918H290.524V28.6576C290.524 23.2216 288.02 19.7042 282.797 19.7042C278.587 19.7042 275.389 22.3156 274.003 26.9522H273.524V20.3437H267.928V45.3918H273.63V31.2157Z" stroke="white" stroke-width="1.02196"></path><path d="M313.507 30.0965L318.89 29.0839C317.877 23.115 314.626 19.7042 307.432 19.7042C299.757 19.7042 294.801 24.6605 294.801 33.0809C294.801 41.5013 299.651 46.0846 307.538 46.0846C314.413 46.0846 317.931 42.5672 318.943 36.7582L313.667 35.4791C312.921 38.5169 311.535 41.0217 307.485 41.0217C303.008 41.0217 300.663 37.9306 300.663 32.8678C300.663 27.3785 303.222 24.7671 307.325 24.7671C311.269 24.7671 312.761 26.8989 313.507 30.0965Z" stroke="white" stroke-width="1.02196"></path><path d="M334.595 24.1276C338.592 24.1276 340.511 26.3659 340.724 30.6827H327.88C328.413 26.2061 330.705 24.1276 334.595 24.1276ZM334.755 46.0313C341.47 46.0313 344.614 42.9402 345.787 38.4103L340.884 37.0247C340.191 39.4229 338.805 41.3414 334.808 41.3414C330.545 41.3414 328.253 39.0498 327.827 34.5199H345.893C346 33.2408 346 32.1216 346 31.1624C346 24.2875 342.323 19.7042 334.755 19.7042C326.921 19.7042 322.125 24.7138 322.125 33.1875C322.125 41.5546 327.081 46.0313 334.755 46.0313Z" stroke="white" stroke-width="1.02196"></path></mask><g mask="url(#mask6_1297_208)"><path d="M273.63 31.2157C273.63 27.4318 276.188 24.8737 280.025 24.8737C283.49 24.8737 284.822 27.112 284.822 30.1498V45.3918H290.524V28.6576C290.524 23.2216 288.02 19.7042 282.797 19.7042C278.587 19.7042 275.389 22.3156 274.003 26.9522H273.524V20.3437H267.928V45.3918H273.63V31.2157Z" stroke="white" stroke-width="1.02196"></path></g><mask id="mask7_1297_208" style="mask-type:luminance" maskUnits="userSpaceOnUse" x="92" y="9" width="256" height="48"><path d="M347.416 10.1772H93.4163V56.1772H347.416V10.1772Z" fill="white" stroke="white" stroke-width="1.02196"></path><path d="M108.592 31.642C112.962 31.642 114.455 33.2941 114.455 36.2253C114.455 38.9432 112.696 40.8085 108.912 40.8085H100.492V31.642H108.592ZM107.953 18.1588C111.683 18.1588 113.176 19.5977 113.176 22.6355C113.176 26.0996 111.044 27.3785 107.686 27.3785H100.492V18.1588H107.953ZM94.4163 45.3918H109.072C117.173 45.3918 120.424 41.8744 120.424 36.7049C120.424 32.1749 118.079 30.1498 112.536 29.5635V29.0306C116.586 28.0713 118.985 25.7264 118.985 21.5695C118.985 16.1336 115.521 13.4156 107.846 13.4156H94.4163V45.3918Z" stroke="white" stroke-width="1.02196"></path><path d="M136.051 46.0846C143.992 46.0846 148.682 41.0217 148.682 32.8145C148.682 24.5539 143.726 19.7042 136.051 19.7042C128.271 19.7042 123.314 24.5539 123.314 32.8145C123.314 41.0217 128.004 46.0846 136.051 46.0846ZM135.998 24.5539C140.635 24.5539 142.98 27.5917 142.98 32.7612C142.98 37.9306 140.741 41.1283 135.998 41.1283C131.202 41.1283 129.07 37.9306 129.07 32.7612C129.07 27.5917 131.362 24.5539 135.998 24.5539Z" stroke="white" stroke-width="1.02196"></path><path d="M163.614 40.9684C159.35 40.9684 157.432 38.357 157.432 32.9743C157.432 27.4851 159.457 24.8737 163.614 24.8737C167.504 24.8737 170.009 27.7516 170.009 32.0684V33.9869C170.009 38.2504 167.451 40.9684 163.614 40.9684ZM170.009 45.3918H175.712V11.1772H170.009V26.8989H169.636C168.357 22.5288 165.586 19.6509 161.056 19.7042C155.193 19.6509 151.783 24.3941 151.783 32.9743C151.783 41.448 155.14 46.0846 160.896 46.0846C165.373 46.0846 168.357 43.1001 169.636 38.7833H170.009V45.3918Z" stroke="white" stroke-width="1.02196"></path><path d="M182.862 54.7182C188.618 54.7182 191.709 51.9469 194.267 45.7115L204.606 20.3438H198.477L195.76 29.5103C194.8 32.6013 193.574 36.5983 192.455 40.3289H191.603C190.537 36.7049 189.151 32.548 188.139 29.4037L185.207 20.3438H178.919L188.991 45.1254C187.339 48.9092 185.847 49.6021 183.022 49.6021C181.956 49.6021 180.891 49.4422 179.825 49.229L178.919 54.3984C180.091 54.5583 181.21 54.7182 182.862 54.7182Z" stroke="white" stroke-width="1.02196"></path><path d="M220.026 18.4785C227.7 18.4785 230.844 21.6228 230.844 29.1372C230.844 36.3318 227.86 40.3822 220.345 40.3822H213.897V18.4785H220.026ZM207.821 45.3918H220.825C230.844 45.3918 236.92 39.263 236.92 29.1372C236.92 19.0114 231.857 13.4156 220.825 13.4156H207.821V45.3918Z" stroke="white" stroke-width="1.02196"></path><path d="M249.752 41.4481C246.501 41.4481 245.382 39.9026 245.382 38.0906C245.382 36.0122 247.034 34.9463 249.912 34.9463H256.414V35.9589C256.414 39.1032 253.749 41.4481 249.752 41.4481ZM256.68 45.3919H262.116V29.4038C262.116 23.1684 259.025 19.7576 251.777 19.7576C245.382 19.7576 241.811 22.7954 240.852 27.5385L246.288 28.7642C246.928 25.8331 248.633 24.3409 251.564 24.3409C255.082 24.3409 256.414 26.2061 256.414 29.4571V31.1625H248.953C242.611 31.1625 239.893 34.4134 239.893 38.89C239.893 43.793 243.037 45.9248 247.514 45.9248C251.937 45.9248 254.815 43.4733 256.094 39.423H256.68V45.3919Z" stroke="white" stroke-width="1.02196"></path><path d="M273.63 31.2157C273.63 27.4318 276.188 24.8737 280.025 24.8737C283.49 24.8737 284.822 27.112 284.822 30.1498V45.3918H290.524V28.6576C290.524 23.2216 288.02 19.7042 282.797 19.7042C278.587 19.7042 275.389 22.3156 274.003 26.9522H273.524V20.3437H267.928V45.3918H273.63V31.2157Z" stroke="white" stroke-width="1.02196"></path><path d="M313.507 30.0965L318.89 29.0839C317.877 23.115 314.626 19.7042 307.432 19.7042C299.757 19.7042 294.801 24.6605 294.801 33.0809C294.801 41.5013 299.651 46.0846 307.538 46.0846C314.413 46.0846 317.931 42.5672 318.943 36.7582L313.667 35.4791C312.921 38.5169 311.535 41.0217 307.485 41.0217C303.008 41.0217 300.663 37.9306 300.663 32.8678C300.663 27.3785 303.222 24.7671 307.325 24.7671C311.269 24.7671 312.761 26.8989 313.507 30.0965Z" stroke="white" stroke-width="1.02196"></path><path d="M334.595 24.1276C338.592 24.1276 340.511 26.3659 340.724 30.6827H327.88C328.413 26.2061 330.705 24.1276 334.595 24.1276ZM334.755 46.0313C341.47 46.0313 344.614 42.9402 345.787 38.4103L340.884 37.0247C340.191 39.4229 338.805 41.3414 334.808 41.3414C330.545 41.3414 328.253 39.0498 327.827 34.5199H345.893C346 33.2408 346 32.1216 346 31.1624C346 24.2875 342.323 19.7042 334.755 19.7042C326.921 19.7042 322.125 24.7138 322.125 33.1875C322.125 41.5546 327.081 46.0313 334.755 46.0313Z" stroke="white" stroke-width="1.02196"></path></mask><g mask="url(#mask7_1297_208)"><path d="M313.507 30.0965L318.89 29.0839C317.877 23.115 314.626 19.7042 307.432 19.7042C299.757 19.7042 294.801 24.6605 294.801 33.0809C294.801 41.5013 299.651 46.0846 307.538 46.0846C314.413 46.0846 317.931 42.5672 318.943 36.7582L313.667 35.4791C312.921 38.5169 311.535 41.0217 307.485 41.0217C303.008 41.0217 300.663 37.9306 300.663 32.8678C300.663 27.3785 303.222 24.7671 307.325 24.7671C311.269 24.7671 312.761 26.8989 313.507 30.0965Z" stroke="white" stroke-width="1.02196"></path></g><mask id="mask8_1297_208" style="mask-type:luminance" maskUnits="userSpaceOnUse" x="92" y="9" width="256" height="48"><path d="M347.416 10.1772H93.4163V56.1772H347.416V10.1772Z" fill="white" stroke="white" stroke-width="1.02196"></path><path d="M108.592 31.642C112.962 31.642 114.455 33.2941 114.455 36.2253C114.455 38.9432 112.696 40.8085 108.912 40.8085H100.492V31.642H108.592ZM107.953 18.1588C111.683 18.1588 113.176 19.5977 113.176 22.6355C113.176 26.0996 111.044 27.3785 107.686 27.3785H100.492V18.1588H107.953ZM94.4163 45.3918H109.072C117.173 45.3918 120.424 41.8744 120.424 36.7049C120.424 32.1749 118.079 30.1498 112.536 29.5635V29.0306C116.586 28.0713 118.985 25.7264 118.985 21.5695C118.985 16.1336 115.521 13.4156 107.846 13.4156H94.4163V45.3918Z" stroke="white" stroke-width="1.02196"></path><path d="M136.051 46.0846C143.992 46.0846 148.682 41.0217 148.682 32.8145C148.682 24.5539 143.726 19.7042 136.051 19.7042C128.271 19.7042 123.314 24.5539 123.314 32.8145C123.314 41.0217 128.004 46.0846 136.051 46.0846ZM135.998 24.5539C140.635 24.5539 142.98 27.5917 142.98 32.7612C142.98 37.9306 140.741 41.1283 135.998 41.1283C131.202 41.1283 129.07 37.9306 129.07 32.7612C129.07 27.5917 131.362 24.5539 135.998 24.5539Z" stroke="white" stroke-width="1.02196"></path><path d="M163.614 40.9684C159.35 40.9684 157.432 38.357 157.432 32.9743C157.432 27.4851 159.457 24.8737 163.614 24.8737C167.504 24.8737 170.009 27.7516 170.009 32.0684V33.9869C170.009 38.2504 167.451 40.9684 163.614 40.9684ZM170.009 45.3918H175.712V11.1772H170.009V26.8989H169.636C168.357 22.5288 165.586 19.6509 161.056 19.7042C155.193 19.6509 151.783 24.3941 151.783 32.9743C151.783 41.448 155.14 46.0846 160.896 46.0846C165.373 46.0846 168.357 43.1001 169.636 38.7833H170.009V45.3918Z" stroke="white" stroke-width="1.02196"></path><path d="M182.862 54.7182C188.618 54.7182 191.709 51.9469 194.267 45.7115L204.606 20.3438H198.477L195.76 29.5103C194.8 32.6013 193.574 36.5983 192.455 40.3289H191.603C190.537 36.7049 189.151 32.548 188.139 29.4037L185.207 20.3438H178.919L188.991 45.1254C187.339 48.9092 185.847 49.6021 183.022 49.6021C181.956 49.6021 180.891 49.4422 179.825 49.229L178.919 54.3984C180.091 54.5583 181.21 54.7182 182.862 54.7182Z" stroke="white" stroke-width="1.02196"></path><path d="M220.026 18.4785C227.7 18.4785 230.844 21.6228 230.844 29.1372C230.844 36.3318 227.86 40.3822 220.345 40.3822H213.897V18.4785H220.026ZM207.821 45.3918H220.825C230.844 45.3918 236.92 39.263 236.92 29.1372C236.92 19.0114 231.857 13.4156 220.825 13.4156H207.821V45.3918Z" stroke="white" stroke-width="1.02196"></path><path d="M249.752 41.4481C246.501 41.4481 245.382 39.9026 245.382 38.0906C245.382 36.0122 247.034 34.9463 249.912 34.9463H256.414V35.9589C256.414 39.1032 253.749 41.4481 249.752 41.4481ZM256.68 45.3919H262.116V29.4038C262.116 23.1684 259.025 19.7576 251.777 19.7576C245.382 19.7576 241.811 22.7954 240.852 27.5385L246.288 28.7642C246.928 25.8331 248.633 24.3409 251.564 24.3409C255.082 24.3409 256.414 26.2061 256.414 29.4571V31.1625H248.953C242.611 31.1625 239.893 34.4134 239.893 38.89C239.893 43.793 243.037 45.9248 247.514 45.9248C251.937 45.9248 254.815 43.4733 256.094 39.423H256.68V45.3919Z" stroke="white" stroke-width="1.02196"></path><path d="M273.63 31.2157C273.63 27.4318 276.188 24.8737 280.025 24.8737C283.49 24.8737 284.822 27.112 284.822 30.1498V45.3918H290.524V28.6576C290.524 23.2216 288.02 19.7042 282.797 19.7042C278.587 19.7042 275.389 22.3156 274.003 26.9522H273.524V20.3437H267.928V45.3918H273.63V31.2157Z" stroke="white" stroke-width="1.02196"></path><path d="M313.507 30.0965L318.89 29.0839C317.877 23.115 314.626 19.7042 307.432 19.7042C299.757 19.7042 294.801 24.6605 294.801 33.0809C294.801 41.5013 299.651 46.0846 307.538 46.0846C314.413 46.0846 317.931 42.5672 318.943 36.7582L313.667 35.4791C312.921 38.5169 311.535 41.0217 307.485 41.0217C303.008 41.0217 300.663 37.9306 300.663 32.8678C300.663 27.3785 303.222 24.7671 307.325 24.7671C311.269 24.7671 312.761 26.8989 313.507 30.0965Z" stroke="white" stroke-width="1.02196"></path><path d="M334.595 24.1276C338.592 24.1276 340.511 26.3659 340.724 30.6827H327.88C328.413 26.2061 330.705 24.1276 334.595 24.1276ZM334.755 46.0313C341.47 46.0313 344.614 42.9402 345.787 38.4103L340.884 37.0247C340.191 39.4229 338.805 41.3414 334.808 41.3414C330.545 41.3414 328.253 39.0498 327.827 34.5199H345.893C346 33.2408 346 32.1216 346 31.1624C346 24.2875 342.323 19.7042 334.755 19.7042C326.921 19.7042 322.125 24.7138 322.125 33.1875C322.125 41.5546 327.081 46.0313 334.755 46.0313Z" stroke="white" stroke-width="1.02196"></path></mask><g mask="url(#mask8_1297_208)"><path d="M334.595 24.1276C338.592 24.1276 340.511 26.3659 340.724 30.6827H327.88C328.413 26.2061 330.705 24.1276 334.595 24.1276ZM334.755 46.0313C341.47 46.0313 344.614 42.9402 345.787 38.4103L340.884 37.0247C340.191 39.4229 338.805 41.3414 334.808 41.3414C330.545 41.3414 328.253 39.0498 327.827 34.5199H345.893C346 33.2408 346 32.1216 346 31.1624C346 24.2875 342.323 19.7042 334.755 19.7042C326.921 19.7042 322.125 24.7138 322.125 33.1875C322.125 41.5546 327.081 46.0313 334.755 46.0313Z" stroke="white" stroke-width="1.02196"></path></g><path d="M20.5388 44.9088H23.4441L36.1282 44.7671C38.7265 44.7671 41.3247 44.838 43.923 44.9797C46.5212 45.0742 48.9541 45.4285 51.2217 46.0426C54.3868 46.8929 57.1504 48.192 59.5124 49.9399C61.9217 51.6406 63.9058 53.6956 65.4647 56.1049C67.0709 58.4669 68.2755 61.0888 69.0786 63.9704C69.8817 66.8049 70.2833 69.781 70.2833 72.8989C70.2833 75.7806 69.929 78.6151 69.2204 81.4023C68.5118 84.1895 67.4488 86.7641 66.0316 89.1261C64.6616 91.4409 62.9137 93.4723 60.7879 95.2202C58.6621 96.9681 56.1347 98.2436 53.2058 99.0467C51.883 99.3773 50.2532 99.6372 48.3164 99.8261C46.4267 100.015 44.4426 100.133 42.364 100.18C40.3327 100.275 38.2777 100.299 36.1991 100.251C34.1678 100.251 32.3254 100.228 30.6719 100.18C29.1602 100.133 27.4596 100.133 25.57 100.18C23.7276 100.18 22.0505 100.18 20.5388 100.18V99.1175C22.2395 98.8813 23.2552 98.3853 23.5858 97.6294C23.9638 96.8736 24.1527 95.8815 24.1527 94.6533V48.877C24.1527 48.5464 24.1291 48.2393 24.0819 47.9558C24.0346 47.6252 23.8929 47.3417 23.6567 47.1055C23.4677 46.8693 23.1134 46.6567 22.5938 46.4678C22.1214 46.2788 21.4364 46.1607 20.5388 46.1135V44.9088ZM31.7349 98.6924C32.8686 98.7396 34.404 98.7632 36.3408 98.7632C38.2777 98.7632 40.2618 98.716 42.2932 98.6215C44.3245 98.527 46.2378 98.3617 48.0329 98.1255C49.8753 97.842 51.2689 97.4641 52.2137 96.9917C54.1033 95.9996 55.7568 94.6533 57.174 92.9526C58.5912 91.2047 59.7722 89.2206 60.717 87.0003C61.6619 84.78 62.3468 82.3707 62.772 79.7725C63.2444 77.1742 63.4334 74.5287 63.3389 71.836C63.2917 69.0016 62.961 66.2852 62.3468 63.687C61.7327 61.0415 60.8351 58.6559 59.6541 56.53C58.5203 54.357 57.0795 52.4909 55.3316 50.932C53.6309 49.3731 51.6468 48.2393 49.3793 47.5307C48.1983 47.1527 46.8283 46.8929 45.2693 46.7512C43.7104 46.5622 42.0806 46.4441 40.3799 46.3969C38.6792 46.3024 37.0022 46.2788 35.3488 46.326C33.6954 46.3733 32.1837 46.4205 30.8137 46.4678V98.6924H31.7349Z" fill="url(#paint0_linear_1297_208)"></path><path d="M0 1.53511V0.0903007H4.51504C6.68226 0.0903007 9.30099 0.0903007 12.3712 0.0903007C15.5016 0.0301009 18.7826 0 22.214 0C24.9832 0.0601998 27.8127 0.180602 30.7023 0.361205C33.6521 0.481604 36.4213 0.903008 39.01 1.62542C40.8762 2.16722 42.5016 2.94983 43.8862 3.97323C45.2708 4.99665 46.4146 6.20066 47.3176 7.58527C48.2206 8.96988 48.8828 10.4749 49.3042 12.1003C49.7859 13.7257 50.0267 15.3511 50.0267 16.9766C50.0267 18.8428 49.7257 20.709 49.1236 22.5752C48.5216 24.3812 47.5885 26.0668 46.3243 27.6321C45.1203 29.1371 43.5852 30.4314 41.719 31.515C39.913 32.5384 37.7457 33.2307 35.2173 33.5919C36.1805 33.7123 37.0835 33.8628 37.9263 34.0434C38.7692 34.1638 39.612 34.3143 40.4548 34.4949C44.8494 35.3979 48.341 37.4146 50.9297 40.5451C53.5785 43.6153 54.9029 47.4079 54.9029 51.923C54.9029 55.3544 54.1805 58.2741 52.7357 60.6822C51.3511 63.03 49.4848 64.9564 47.137 66.4614C44.8494 67.9062 42.2307 68.9597 39.2809 69.6219C36.3912 70.2842 33.4414 70.6153 30.4314 70.6153C28.505 70.6153 26.5183 70.5852 24.4715 70.525C22.4247 70.4648 20.4983 70.4648 18.6923 70.525C15.6822 70.5852 12.5819 70.5852 9.39128 70.525C6.20066 70.525 3.07023 70.525 0 70.525V68.9898C1.86622 68.8694 3.22073 68.5985 4.06354 68.1771C4.96655 67.7557 5.41805 66.7022 5.41805 65.0166L5.50835 4.42474C5.50835 2.97993 4.96655 2.16722 3.88294 1.98661C2.79933 1.74582 1.50501 1.59531 0 1.53511ZM30.8829 67.9965C33.3511 67.5751 35.5484 66.8527 37.4748 65.8293C39.4615 64.8059 41.117 63.5116 42.4414 61.9464C43.525 60.5618 44.3678 58.9965 44.9698 57.2507C45.5718 55.4447 45.8126 53.4882 45.6922 51.3812C45.5718 48.8527 45.1504 46.7457 44.428 45.0601C43.7658 43.3143 42.8628 41.8695 41.719 40.7257C40.5752 39.5819 39.2207 38.6789 37.6554 38.0167C36.0902 37.2942 34.4046 36.7223 32.5986 36.3009C31.0936 35.9397 29.5284 35.6387 27.903 35.3979C26.2775 35.1571 24.6521 34.8862 23.0267 34.5852C21.4013 34.2842 19.806 33.9531 18.2408 33.5919C16.6756 33.2307 15.2608 32.7491 13.9966 32.1471V68.448C16.224 68.448 18.8428 68.5082 21.8528 68.6286C24.8628 68.6888 27.8729 68.4781 30.8829 67.9965ZM24.8327 32.418C26.3979 32.3578 27.9331 32.1772 29.4381 31.8762C30.9431 31.5752 32.2675 31.1538 33.4113 30.612C34.6755 29.9498 35.8193 29.107 36.8427 28.0836C37.9263 26.9999 38.8294 25.7959 39.5518 24.4715C40.2742 23.1471 40.816 21.7625 41.1772 20.3177C41.5986 18.8127 41.7491 17.3378 41.6287 15.8929C41.4481 13.4849 40.8461 11.4381 39.8227 9.75249C38.8595 8.00667 37.5952 6.59196 36.03 5.50835C34.4648 4.42474 32.6889 3.61203 30.7023 3.07023C28.7157 2.52842 26.6688 2.22742 24.5618 2.16722C22.816 2.10702 21.0401 2.10702 19.2341 2.16722C17.4281 2.22742 15.6822 2.25752 13.9966 2.25752V29.7993C14.4782 30.2207 15.1103 30.612 15.8929 30.9732C16.7358 31.2742 17.6388 31.5451 18.602 31.7859C19.6254 32.0267 20.6789 32.2073 21.7625 32.3277C22.8461 32.3879 23.8695 32.418 24.8327 32.418Z" fill="url(#paint1_linear_1297_208)"></path></g><rect width="276" height="36" transform="translate(70 94)" fill="#9F0400"></rect><path d="M133.476 98.8H139.452C141.492 98.8 142.98 99.28 143.916 100.24C144.852 101.176 145.32 102.628 145.32 104.596V105.604C145.32 106.9 145.104 107.956 144.672 108.772C144.264 109.588 143.628 110.176 142.764 110.536V110.608C144.732 111.28 145.716 113.032 145.716 115.864V118.024C145.716 119.968 145.2 121.456 144.168 122.488C143.16 123.496 141.672 124 139.704 124H133.476V98.8ZM138.984 109.06C139.776 109.06 140.364 108.856 140.748 108.448C141.156 108.04 141.36 107.356 141.36 106.396V104.992C141.36 104.08 141.192 103.42 140.856 103.012C140.544 102.604 140.04 102.4 139.344 102.4H137.436V109.06H138.984ZM139.704 120.4C140.4 120.4 140.916 120.22 141.252 119.86C141.588 119.476 141.756 118.828 141.756 117.916V115.72C141.756 114.568 141.552 113.776 141.144 113.344C140.76 112.888 140.112 112.66 139.2 112.66H137.436V120.4H139.704ZM148.031 98.8H151.991V120.4H158.507V124H148.031V98.8ZM163.606 98.8H168.97L173.074 124H169.114L168.394 118.996V119.068H163.894L163.174 124H159.502L163.606 98.8ZM167.926 115.648L166.162 103.192H166.09L164.362 115.648H167.926ZM180.505 124.36C178.609 124.36 177.157 123.82 176.149 122.74C175.165 121.66 174.673 120.136 174.673 118.168V104.632C174.673 102.664 175.165 101.14 176.149 100.06C177.157 98.98 178.609 98.44 180.505 98.44C182.401 98.44 183.841 98.98 184.825 100.06C185.833 101.14 186.337 102.664 186.337 104.632V107.296H182.593V104.38C182.593 102.82 181.933 102.04 180.613 102.04C179.293 102.04 178.633 102.82 178.633 104.38V118.456C178.633 119.992 179.293 120.76 180.613 120.76C181.933 120.76 182.593 119.992 182.593 118.456V114.604H186.337V118.168C186.337 120.136 185.833 121.66 184.825 122.74C183.841 123.82 182.401 124.36 180.505 124.36ZM188.706 98.8H192.666V109.42L197.706 98.8H201.666L196.95 108.052L201.738 124H197.598L194.25 112.768L192.666 115.972V124H188.706V98.8ZM209.378 98.8H219.854V102.4H213.338V109.42H218.45V113.02H213.338V124H209.378V98.8ZM221.753 98.8H227.621C229.661 98.8 231.149 99.28 232.085 100.24C233.021 101.176 233.489 102.628 233.489 104.596V106.144C233.489 108.76 232.625 110.416 230.897 111.112V111.184C231.857 111.472 232.529 112.06 232.913 112.948C233.321 113.836 233.525 115.024 233.525 116.512V120.94C233.525 121.66 233.549 122.248 233.597 122.704C233.645 123.136 233.765 123.568 233.957 124H229.925C229.781 123.592 229.685 123.208 229.637 122.848C229.589 122.488 229.565 121.84 229.565 120.904V116.296C229.565 115.144 229.373 114.34 228.989 113.884C228.629 113.428 227.993 113.2 227.081 113.2H225.713V124H221.753V98.8ZM227.153 109.6C227.945 109.6 228.533 109.396 228.917 108.988C229.325 108.58 229.529 107.896 229.529 106.936V104.992C229.529 104.08 229.361 103.42 229.025 103.012C228.713 102.604 228.209 102.4 227.513 102.4H225.713V109.6H227.153ZM236.273 98.8H240.233V124H236.273V98.8ZM243.199 98.8H249.247C251.215 98.8 252.691 99.328 253.675 100.384C254.659 101.44 255.151 102.988 255.151 105.028V117.772C255.151 119.812 254.659 121.36 253.675 122.416C252.691 123.472 251.215 124 249.247 124H243.199V98.8ZM249.175 120.4C249.823 120.4 250.315 120.208 250.651 119.824C251.011 119.44 251.191 118.816 251.191 117.952V104.848C251.191 103.984 251.011 103.36 250.651 102.976C250.315 102.592 249.823 102.4 249.175 102.4H247.159V120.4H249.175ZM260.813 98.8H266.177L270.281 124H266.321L265.601 118.996V119.068H261.101L260.381 124H256.709L260.813 98.8ZM265.133 115.648L263.369 103.192H263.297L261.569 115.648H265.133ZM274.186 113.272L269.398 98.8H273.61L276.31 108.052H276.382L279.082 98.8H282.934L278.146 113.272V124H274.186V113.272Z" fill="white"></path><defs><linearGradient id="paint0_linear_1297_208" x1="49.6706" y1="74.1232" x2="23.0104" y2="41.2019" gradientUnits="userSpaceOnUse"><stop stop-color="#4E0076"></stop><stop offset="1" stop-color="#BC38FF"></stop></linearGradient><linearGradient id="paint1_linear_1297_208" x1="27.4536" y1="44.4336" x2="-10.3149" y2="-17.7734" gradientUnits="userSpaceOnUse"><stop stop-color="#5D008D"></stop><stop offset="1" stop-color="#BC38FF"></stop></linearGradient><clipPath id="clip0_1297_208"><rect width="347" height="101" fill="white"></rect></clipPath></defs></svg>