<svg xmlns="http://www.w3.org/2000/svg" width="303" height="240" viewBox="0 0 303 240" fill="none"><path d="M21.1829 219.613C25.1544 218.706 27.5947 216.271 27.5947 212.594C27.5947 207.629 24.2931 204.907 16.9721 204.907H3C3.95699 205.767 4.29194 207.056 4.29194 209.491V235.082C4.29194 237.517 3.95699 238.806 3 239.666H15.3452C24.2931 239.666 29.0302 236.419 29.0302 229.066C29.0302 223.958 25.6329 220.711 21.1829 219.613ZM14.4839 206.435C18.8861 206.435 21.5657 207.724 21.5657 212.737C21.5657 217.321 19.221 218.944 15.2495 218.944H10.0339V206.435H14.4839ZM22.9533 228.875C22.9533 235.989 19.5081 238.138 14.6753 238.138H10.0339V220.472H15.3452C20.0345 220.472 23.0012 223.48 22.9533 228.875Z" fill="#6C2523"></path><path d="M54.2145 239.666C53.4967 238.854 53.401 237.804 53.401 236.037V224.865C53.401 219.135 50.6736 215.172 43.0655 215.172C38.3762 215.172 35.9838 216.557 34.3569 217.512L35.1225 219.947H35.1703C36.2709 218.515 39.2375 216.557 42.0607 216.557C46.5107 216.557 47.8983 219.374 47.8983 223.576V228.111C46.3193 226.775 44.2618 225.724 41.4865 225.724C35.8881 225.724 32.4429 228.589 32.4429 232.981C32.4429 237.326 35.8402 240 40.3859 240C43.9747 240 46.2236 238.52 48.1376 236.371L48.4247 239.666H54.2145ZM43.1612 237.326C39.9074 237.326 37.9456 235.225 37.8977 232.599C37.8499 230.069 39.3332 227.682 43.1134 227.682C45.4101 227.682 47.037 228.732 47.8983 229.639V235.225C46.8456 236.276 45.2666 237.326 43.1612 237.326Z" fill="#6C2523"></path><path d="M59.6402 208.822V235.178C59.6402 237.469 59.4009 238.806 58.5397 239.666H66.2913C65.3822 238.806 65.1908 237.469 65.1908 235.178V204C63.0375 204.286 60.1665 204.43 58.4918 204.525C59.4009 205.385 59.6402 206.578 59.6402 208.822Z" fill="#6C2523"></path><path d="M71.6493 208.822V235.178C71.6493 237.469 71.4101 238.806 70.5488 239.666H78.3005C77.3913 238.806 77.1999 237.469 77.1999 235.178V204C75.0467 204.286 72.1757 204.43 70.501 204.525C71.4101 205.385 71.6493 206.578 71.6493 208.822Z" fill="#6C2523"></path><path d="M94.2811 215.172C87.008 215.172 82.1273 220.663 82.1273 227.634C82.1273 235.178 87.2951 240 94.4247 240C98.3483 240 102.368 238.424 104.377 236.61L103.373 234.557H103.325C100.98 237.183 97.822 238.424 95.5252 238.424C91.3144 238.424 88.0607 234.987 88.0128 227.682H105.191V227.156C105.143 220.186 101.746 215.172 94.2811 215.172ZM94.4247 216.318C98.0612 216.318 99.8795 219.899 100.071 226.154H88.0607C88.3478 220.042 90.6445 216.318 94.4247 216.318Z" fill="#6C2523"></path><path d="M121.45 235.512C120.589 236.515 119.824 237.135 118.244 237.135C115.996 237.135 115.278 235.512 115.278 232.934V217.369H121.594V215.841H115.278V209.777C113.316 210.064 110.971 210.255 109.679 210.35L109.727 232.743C109.727 237.517 111.785 240 115.756 240C118.962 240 120.493 238.711 121.785 235.751L121.45 235.512Z" fill="#6C2523"></path><path d="M160.193 239.666C159.331 238.806 159.092 237.469 159.092 235.178L159.044 204C156.939 204.286 154.068 204.43 152.393 204.573C153.254 205.432 153.541 206.578 153.541 208.87V220.377C151.819 217.082 149.139 215.172 145.311 215.172C139.856 215.172 135.119 219.326 135.119 227.682C135.119 235.846 139.426 240 145.12 240C148.9 240 151.819 238.042 153.541 234.796L153.924 239.666H160.193ZM147.56 237.135C143.541 237.135 141.005 234.08 141.053 227.682C141.053 221.045 143.589 218.085 147.56 218.085C149.57 218.085 151.962 219.279 153.541 222.095V233.077C151.962 235.894 149.57 237.135 147.56 237.135Z" fill="#6C2523"></path><path d="M176.532 215.172C169.067 215.172 163.995 220.377 163.995 227.586C163.995 235.034 168.876 240 176.532 240C183.948 240 189.021 234.844 189.021 227.586C189.021 220.186 184.14 215.172 176.532 215.172ZM176.532 216.318C180.455 216.318 183.087 219.804 183.087 227.586C183.135 235.369 180.455 238.854 176.532 238.854C172.56 238.854 169.881 235.369 169.881 227.586C169.928 219.804 172.56 216.318 176.532 216.318Z" fill="#6C2523"></path><path d="M227.928 236.753C227.067 237.708 225.775 238.042 223.335 238.042L209.554 237.995L227.737 206.531V204.907H203.573V207.772H203.621C204.482 206.817 205.774 206.483 208.214 206.483L221.373 206.531L203.19 237.995V239.666H227.976V236.753H227.928Z" fill="#6C2523"></path><path d="M241.942 215.172C234.669 215.172 229.788 220.663 229.788 227.634C229.788 235.178 234.956 240 242.086 240C246.009 240 250.029 238.424 252.039 236.61L251.034 234.557H250.986C248.641 237.183 245.483 238.424 243.186 238.424C238.976 238.424 235.722 234.987 235.674 227.682H252.852V227.156C252.804 220.186 249.407 215.172 241.942 215.172ZM242.086 216.318C245.722 216.318 247.541 219.899 247.732 226.154H235.722C236.009 220.042 238.306 216.318 242.086 216.318Z" fill="#6C2523"></path><path d="M269.781 215.172C266.575 215.172 264.231 217.082 262.7 219.995V215.602C260.786 215.936 258.297 216.127 256.623 216.223C257.436 217.082 257.675 218.18 257.675 220.424V235.178C257.675 237.469 257.484 238.806 256.671 239.666H264.231C263.417 238.806 263.226 237.469 263.226 235.178V221.188C263.944 219.231 266.193 217.034 269.303 217.034C271.217 217.034 272.413 218.133 272.892 219.183H272.94L274.136 216.175C272.892 215.554 271.504 215.172 269.781 215.172Z" fill="#6C2523"></path><path d="M287.511 215.172C280.047 215.172 274.975 220.377 274.975 227.586C274.975 235.034 279.855 240 287.511 240C294.928 240 300 234.844 300 227.586C300 220.186 295.119 215.172 287.511 215.172ZM287.511 216.318C291.435 216.318 294.067 219.804 294.067 227.586C294.114 235.369 291.435 238.854 287.511 238.854C283.54 238.854 280.86 235.369 280.86 227.586C280.908 219.804 283.54 216.318 287.511 216.318Z" fill="#6C2523"></path><path d="M102.792 157.908H98.4841C99.0844 158.543 99.1197 159.496 98.9078 161.297L96.5069 178.492C96.1185 181.458 95.0946 183.577 94 184.071L94.0706 184.353C96.754 183.965 98.696 181.635 99.1903 178.104L101.485 161.297C101.732 159.496 102.086 158.543 102.792 157.908Z" fill="#6C2523"></path><path d="M113.624 165.675C107.975 165.675 103.949 170.619 103.949 176.409C103.949 181.211 106.739 183.859 111.082 183.859C116.802 183.859 120.721 178.845 120.721 173.267C120.721 168.571 117.896 165.675 113.624 165.675ZM113.553 166.134C116.272 166.134 118.143 168.571 118.143 172.525C118.143 177.398 115.46 183.4 111.152 183.4C108.398 183.4 106.527 181.105 106.527 177.045C106.527 171.96 109.246 166.134 113.553 166.134Z" fill="#6C2523"></path><path d="M133.319 165.675C130.741 165.675 129.047 167.37 127.775 169.559L128.234 165.993C126.963 166.593 126.116 166.876 125.021 166.982C125.622 167.617 125.551 168.359 125.339 169.983L123.892 180.258C123.609 182.305 123.397 182.976 122.726 183.612H126.54C126.045 182.976 126.116 182.023 126.328 180.258L127.74 170.089C128.34 168.783 130.247 166.805 132.754 166.805C134.131 166.805 134.837 167.723 135.014 168.641H135.049L136.214 166.487C135.367 165.923 134.519 165.675 133.319 165.675Z" fill="#6C2523"></path><path d="M152.173 172.49C152.774 167.935 151.679 165.675 148.713 165.675C145.218 165.675 142.181 168.959 140.486 172.56L141.44 165.993C140.169 166.593 139.286 166.876 138.191 166.982C138.792 167.617 138.756 168.359 138.544 169.983L137.132 180.258C136.814 182.305 136.602 182.976 135.967 183.612H139.745C139.251 182.976 139.286 182.023 139.533 180.258L140.416 173.832C141.334 170.654 144.441 167.017 147.407 167.017C149.561 167.017 150.231 168.924 149.737 172.384L148.643 180.258C148.36 182.305 148.148 182.976 147.513 183.612H151.361C150.761 182.976 150.796 181.988 151.079 180.152L152.173 172.49Z" fill="#6C2523"></path><path d="M169.757 180.152L171.629 166.77H171.593L169.298 167.688C168.31 166.311 167.109 165.675 165.45 165.675C159.73 165.675 155.563 171.395 155.563 177.574C155.563 181.564 157.258 183.859 160.33 183.859C163.296 183.859 165.803 181.352 167.78 177.504L166.933 183.612H170.11C169.581 182.941 169.581 181.741 169.757 180.152ZM161.177 182.517C159.236 182.517 158.212 180.893 158.212 177.539C158.212 172.384 160.718 166.629 165.591 166.629C167.215 166.629 168.31 167.3 168.981 168.677L167.921 176.374C165.979 180.187 163.755 182.517 161.177 182.517Z" fill="#6C2523"></path><path d="M189.255 180.258L192.398 157.59C191.339 158.049 190.244 158.437 189.22 158.543C189.714 159.143 189.679 159.673 189.432 161.544L188.62 167.37C187.702 166.382 186.36 165.675 184.348 165.675C178.416 165.675 174.355 171.395 174.355 177.574C174.355 181.564 176.05 183.859 179.122 183.859C182.441 183.859 185.301 180.717 187.455 175.632L186.325 183.612H189.467C189.008 183.082 188.973 182.341 189.255 180.258ZM187.596 174.502C185.407 179.481 182.971 182.517 179.969 182.517C178.027 182.517 177.003 180.893 177.003 177.539C177.003 172.384 179.51 166.629 184.489 166.629C186.325 166.629 187.631 167.264 188.479 168.253L187.596 174.502Z" fill="#6C2523"></path><path d="M207.824 180.152L209.695 166.77H209.66L207.365 167.688C206.376 166.311 205.176 165.675 203.516 165.675C197.796 165.675 193.63 171.395 193.63 177.574C193.63 181.564 195.325 183.859 198.397 183.859C201.362 183.859 203.869 181.352 205.847 177.504L204.999 183.612H208.177C207.647 182.941 207.647 181.741 207.824 180.152ZM199.244 182.517C197.302 182.517 196.278 180.893 196.278 177.539C196.278 172.384 198.785 166.629 203.657 166.629C205.282 166.629 206.376 167.3 207.047 168.677L205.988 176.374C204.046 180.187 201.821 182.517 199.244 182.517Z" fill="#6C2523"></path><path fill-rule="evenodd" clip-rule="evenodd" d="M288.472 173.599C293.247 173.599 296.39 174.036 298.371 174.568C299.361 174.834 300.046 175.119 300.493 175.375C300.963 175.644 301.102 175.841 301.122 175.888L302.244 175.65V169.789L301.125 169.547C301.066 169.675 300.868 169.935 300.384 170.259C299.913 170.575 299.211 170.923 298.217 171.247C296.229 171.893 293.12 172.427 288.472 172.427H222V173.599H288.472ZM298.58 172.361C297.927 172.573 297.173 172.771 296.305 172.944C297.219 173.088 298.005 173.256 298.675 173.436C299.728 173.718 300.512 174.036 301.072 174.356V171.209C301.06 171.217 301.048 171.225 301.036 171.233C300.455 171.623 299.649 172.013 298.58 172.361Z" fill="#D09172" stroke="#D09172" stroke-width="0.586042"></path><path d="M301.658 170.375L295.212 172.719L294.625 173.305L298.435 173.891L301.658 175.063V170.375Z" fill="#D09172"></path><path fill-rule="evenodd" clip-rule="evenodd" d="M14.7721 173.599C9.99742 173.599 6.85366 174.036 4.87341 174.568C3.88284 174.834 3.19836 175.119 2.75095 175.375C2.28161 175.644 2.14261 175.841 2.12165 175.888L1.00008 175.65V169.789L2.11964 169.547C2.17765 169.675 2.37617 169.935 2.85992 170.259C3.33137 170.575 4.03359 170.923 5.02734 171.247C7.01491 171.893 10.1241 172.427 14.7721 172.427H81.2441V173.599H14.7721ZM4.66462 172.361C5.31671 172.573 6.07106 172.771 6.93869 172.944C6.02466 173.088 5.23962 173.256 4.56948 173.436C3.51613 173.718 2.73177 174.036 2.17216 174.356V171.209C2.18397 171.217 2.19585 171.225 2.20781 171.233C2.7894 171.623 3.59501 172.013 4.66462 172.361Z" fill="#D09172" stroke="#D09172" stroke-width="0.586042"></path><path d="M1.58615 170.375L8.03261 172.719L8.61865 173.305L4.80938 173.891L1.58615 175.063V170.375Z" fill="#D09172"></path><path d="M154.21 12.5605C157.873 12.5605 161.442 12.9649 164.876 13.7268C164.976 13.7502 165.069 13.7678 165.163 13.7912C165.005 14.4886 164.829 15.2446 164.618 16.0709C164.565 16.0592 164.513 16.0475 164.46 16.0358C161.16 15.2974 157.732 14.9047 154.21 14.9047C128.389 14.9047 107.385 35.9084 107.385 61.7294C107.385 81.2915 119.446 98.0933 136.517 105.079C136.64 105.138 136.764 105.184 136.892 105.231C136.705 106.017 136.512 106.784 136.324 107.529C136.207 107.488 136.095 107.441 135.984 107.394C117.864 100.139 105.041 82.405 105.041 61.7294C105.041 34.6192 127.094 12.5605 154.21 12.5605V12.5605ZM168.076 106.456C187.146 100.531 201.035 82.7214 201.035 61.7294C201.035 44.0486 191.183 28.6239 176.679 20.6596C176.644 20.6362 176.609 20.6186 176.568 20.601C176.702 19.8392 176.843 19.0304 176.995 18.169C177.03 18.1807 177.06 18.1983 177.095 18.2217C192.713 26.4673 203.379 42.8765 203.379 61.7294C203.379 83.7001 188.892 102.354 168.967 108.636C168.75 108.707 168.539 108.771 168.316 108.83C168.005 108.138 167.689 107.411 167.39 106.661C167.625 106.597 167.853 106.532 168.082 106.456H168.076Z" fill="#D09172"></path><path d="M141.317 120.903C142.39 122.052 142.583 124.279 142.313 126.957C142.05 129.641 141.628 130.678 142.431 130.831C143.234 130.983 143.503 131.522 145.419 127.303C147.336 123.089 148.215 121.097 148.315 116.115C148.408 111.134 148.871 104.465 152.089 96.1137C152.089 96.1137 153.694 95.8793 153.694 101.247C153.694 106.616 160.592 116.959 161.131 119.028C161.67 121.097 161.512 124.086 161.512 128.686C161.512 133.286 161.899 135.044 163.124 135.044C164.349 135.044 166.189 133.052 166.189 129.911C166.189 126.77 166.411 123.582 162.743 113.894C157.838 100.937 158.834 85.9928 158.834 85.9928L147.793 82.5469C148.871 85.4595 148.104 87.7568 147.031 92.8143C145.959 97.8719 144.998 103.392 144.769 110.29C144.54 117.188 142.237 116.959 141.317 117.534C140.397 118.108 140.245 119.755 141.317 120.903Z" fill="#6C2523"></path><path d="M132.163 73.7313C142.853 80.6876 146.615 82.1762 147.541 82.4751L147.641 82.5044L147.758 82.5395H147.793L158.834 85.9913C169.166 88.3355 176.937 86.9407 181.789 81.2971C182.516 80.4474 182.328 79.1522 181.402 78.531C177.505 75.9114 167.683 69.1719 162.895 64.6887C163.962 66.1948 158.816 65.2396 157.855 64.6887C158.172 64.7239 162.292 65.2279 161.858 64.5246C160.44 62.2273 162.79 58.084 162.79 58.084C162.907 57.6328 163.042 57.1463 163.2 56.6306C164.899 51.0456 165.398 50.5592 166.066 46.8261C166.036 40.995 162.971 40.5379 162.051 40.995C161.131 41.458 158.523 44.8277 157.146 45.1383C155.769 45.4431 154.386 41.0361 151.936 40.8661C149.481 40.6903 146.463 43.978 148.209 48.3264C149.053 49.5571 149.75 51.3269 150.096 53.4133C150.782 57.6269 150.477 60.1586 150.477 60.1586C150.477 60.1586 146.955 61.0025 140.514 58.6232C137.344 57.4569 135.357 56.6716 134.167 56.1852C133.107 55.7516 131.894 55.9801 131.079 56.783C128.055 59.7484 122.212 67.2497 132.163 73.7255V73.7313Z" fill="#D09172"></path><path d="M112.308 63.0779C115.531 58.7763 115.66 57.4343 122.353 53.6485C125.875 51.6559 125.769 51.2574 131.401 48.5851C137.039 45.9068 139.248 43.4396 142.126 41.2537C144.997 39.0677 145.748 39.8179 149.311 39.1263C152.874 38.4348 152.012 33.6644 151.778 32.5158C151.549 31.3672 149.369 30.3299 148.045 29.1226C147.904 28.9937 147.775 28.8472 147.664 28.6889C146.281 28.4428 145.232 27.2414 145.232 25.788C145.232 24.1588 146.55 22.8402 148.185 22.8402C148.789 22.8402 149.346 23.0219 149.815 23.3325C152.182 21.967 155.751 21.2638 158.224 23.7779C160.985 26.5968 161.442 29.6442 161.389 30.7342C161.33 31.8243 158.148 31.9591 158.148 31.9591C158.148 31.9591 157.843 33.8754 157.996 35.9441C158.148 38.0129 160.756 37.251 160.756 37.251C160.756 37.251 160.522 35.5632 163.282 33.1077C165.714 30.9511 165.585 30.0427 166.734 25.3719C167.882 20.6953 168.111 17.8589 169.412 14.5653C170.719 11.2659 169.875 10.1935 171.252 5.21212C172.629 0.230763 176.151 0.0783926 177.611 0.00220723C179.064 -0.0739782 180.676 1.84238 177.687 2.60423C174.698 3.37195 173.315 5.44067 172.858 6.82373C172.395 8.20093 171.322 20.0038 170.402 26.7491C169.482 33.4945 167.724 35.487 166.652 43.0763C166.581 43.5861 166.511 44.0608 166.447 44.5003C165.866 41.4295 164.179 40.2808 162.702 40.2808C162.362 40.2808 162.045 40.3512 161.787 40.4742C161.36 40.6969 160.797 41.2537 159.924 42.1445C159.027 43.0528 157.679 44.4242 157.017 44.5707C156.871 44.5707 156.63 44.3538 156.378 44.0667C156.12 43.7795 155.851 43.4162 155.634 43.129C154.72 41.9159 153.583 40.3981 151.977 40.2867C151.901 40.2867 151.825 40.2867 151.749 40.2867C150.395 40.2867 149 41.113 148.103 42.4433C147.177 43.8088 146.896 45.5083 147.265 47.2489C146.662 46.7156 146.023 46.4519 145.419 46.528C143.579 46.7566 141.51 47.9873 133.312 51.4332C125.107 54.885 122.734 55.9575 118.825 59.0225C114.916 62.0875 113.269 68.446 111.851 68.6218C110.433 68.7918 110.726 65.1935 112.308 63.0837V63.0779Z" fill="#6C2523"></path></svg>