<svg xmlns="http://www.w3.org/2000/svg" width="346" height="152" viewBox="0 0 346 152" fill="none"><path d="M26.4803 140.237H20.2362L19.0384 143.496H17.5854L22.5925 129.947H24.1437L29.1311 143.496H27.6781L26.4803 140.237ZM26.068 139.098L23.3583 131.675L20.6485 139.098H26.068ZM47.615 129.771V130.91H43.8057V143.496H42.4312V130.91H38.6023V129.771H47.615ZM65.3368 143.496L61.9399 137.762H59.4069V143.496H58.0324V129.771H62.1559C63.6874 129.771 64.8459 130.137 65.6314 130.87C66.4299 131.603 66.8291 132.566 66.8291 133.757C66.8291 134.752 66.5412 135.603 65.9652 136.309C65.4023 137.003 64.5645 137.455 63.4518 137.664L66.9862 143.496H65.3368ZM59.4069 136.643H62.1755C63.2489 136.643 64.054 136.381 64.5907 135.858C65.1405 135.334 65.4154 134.634 65.4154 133.757C65.4154 132.854 65.1536 132.16 64.63 131.675C64.1063 131.178 63.2816 130.929 62.1559 130.929H59.4069V136.643ZM85.7562 140.237H79.5121L78.3143 143.496H76.8613L81.8684 129.947H83.4196L88.407 143.496H86.954L85.7562 140.237ZM85.3439 139.098L82.6342 131.675L79.9244 139.098H85.3439ZM109.738 129.771L104.535 143.496H102.964L97.7604 129.771H99.2527L103.749 142.004L108.285 129.771H109.738ZM121.425 130.89V136.015H126.628V137.154H121.425V142.357H127.217V143.496H120.05V129.751H127.217V130.89H121.425ZM125.175 126.786L121.15 129.123V128.062L125.175 125.549V126.786ZM142.335 143.634C141.432 143.634 140.634 143.476 139.94 143.162C139.259 142.848 138.722 142.41 138.33 141.847C137.937 141.284 137.728 140.655 137.701 139.962H139.154C139.22 140.629 139.514 141.218 140.038 141.729C140.562 142.226 141.327 142.475 142.335 142.475C143.265 142.475 143.998 142.239 144.535 141.768C145.084 141.284 145.359 140.675 145.359 139.942C145.359 139.353 145.209 138.882 144.908 138.528C144.607 138.162 144.234 137.893 143.788 137.723C143.343 137.54 142.728 137.344 141.943 137.134C141.026 136.885 140.3 136.643 139.763 136.408C139.226 136.172 138.768 135.805 138.389 135.308C138.009 134.811 137.819 134.136 137.819 133.286C137.819 132.579 138.003 131.95 138.369 131.401C138.736 130.838 139.253 130.399 139.92 130.085C140.588 129.771 141.354 129.614 142.218 129.614C143.487 129.614 144.508 129.928 145.281 130.556C146.066 131.171 146.518 131.97 146.636 132.952H145.143C145.052 132.389 144.744 131.891 144.22 131.459C143.697 131.014 142.99 130.792 142.1 130.792C141.275 130.792 140.588 131.014 140.038 131.459C139.488 131.891 139.213 132.487 139.213 133.246C139.213 133.822 139.364 134.287 139.665 134.64C139.966 134.994 140.339 135.262 140.784 135.445C141.242 135.629 141.858 135.825 142.63 136.035C143.52 136.283 144.24 136.532 144.79 136.781C145.34 137.016 145.804 137.383 146.184 137.88C146.564 138.378 146.753 139.045 146.753 139.883C146.753 140.525 146.583 141.133 146.243 141.709C145.903 142.285 145.399 142.75 144.731 143.103C144.063 143.457 143.265 143.634 142.335 143.634ZM175.356 129.771C176.875 129.771 178.177 130.046 179.264 130.595C180.35 131.145 181.182 131.937 181.758 132.971C182.334 134.006 182.622 135.236 182.622 136.663C182.622 138.077 182.334 139.301 181.758 140.335C181.182 141.356 180.35 142.141 179.264 142.691C178.177 143.228 176.875 143.496 175.356 143.496H171.292V129.771H175.356ZM175.356 142.357C177.268 142.357 178.721 141.86 179.715 140.865C180.723 139.857 181.227 138.456 181.227 136.663C181.227 134.856 180.723 133.449 179.715 132.441C178.721 131.42 177.268 130.91 175.356 130.91H172.666V142.357H175.356ZM201.355 140.237H195.111L193.913 143.496H192.46L197.467 129.947H199.018L204.006 143.496H202.553L201.355 140.237ZM200.943 139.098L198.233 131.675L195.523 139.098H200.943ZM232.159 129.771C233.677 129.771 234.98 130.046 236.066 130.595C237.153 131.145 237.984 131.937 238.56 132.971C239.136 134.006 239.424 135.236 239.424 136.663C239.424 138.077 239.136 139.301 238.56 140.335C237.984 141.356 237.153 142.141 236.066 142.691C234.98 143.228 233.677 143.496 232.159 143.496H228.094V129.771H232.159ZM232.159 142.357C234.07 142.357 235.523 141.86 236.518 140.865C237.526 139.857 238.03 138.456 238.03 136.663C238.03 134.856 237.526 133.449 236.518 132.441C235.523 131.42 234.07 130.91 232.159 130.91H229.469V142.357H232.159ZM258.157 140.237H251.913L250.715 143.496H249.262L254.269 129.947H255.821L260.808 143.496H259.355L258.157 140.237ZM257.745 139.098L255.035 131.675L252.326 139.098H257.745ZM281.609 143.496H280.235L272.636 131.95V143.496H271.261V129.771H272.636L280.235 141.297V129.771H281.609V143.496ZM299.056 142.416C300.195 142.416 301.164 142.161 301.962 141.65C302.774 141.127 303.376 140.407 303.769 139.49H305.379C304.921 140.695 304.201 141.657 303.219 142.377C302.25 143.084 301.092 143.49 299.743 143.594V144.812C300.516 144.786 301.125 144.929 301.57 145.244C302.028 145.571 302.257 146.036 302.257 146.638C302.257 147.227 302.047 147.692 301.628 148.032C301.21 148.385 300.653 148.562 299.959 148.562H297.996V147.639H299.685C300.169 147.639 300.522 147.554 300.745 147.384C300.981 147.227 301.098 146.978 301.098 146.638C301.098 146.009 300.627 145.695 299.685 145.695H298.781V143.614C297.564 143.575 296.464 143.254 295.483 142.652C294.501 142.037 293.728 141.212 293.166 140.178C292.616 139.13 292.341 137.946 292.341 136.624C292.341 135.275 292.635 134.071 293.224 133.011C293.814 131.937 294.619 131.106 295.64 130.517C296.661 129.915 297.8 129.614 299.056 129.614C300.588 129.614 301.897 129.98 302.983 130.713C304.083 131.433 304.881 132.454 305.379 133.776H303.769C303.376 132.847 302.774 132.121 301.962 131.597C301.164 131.073 300.195 130.811 299.056 130.811C298.048 130.811 297.138 131.047 296.327 131.518C295.528 131.99 294.9 132.67 294.442 133.56C293.984 134.438 293.755 135.459 293.755 136.624C293.755 137.789 293.984 138.81 294.442 139.687C294.9 140.564 295.528 141.238 296.327 141.709C297.138 142.181 298.048 142.416 299.056 142.416ZM324.317 140.237H318.073L316.875 143.496H315.422L320.429 129.947H321.981L326.968 143.496H325.515L324.317 140.237ZM323.905 139.098L321.195 131.675L318.485 139.098H323.905Z" fill="white"></path><path d="M49.8436 62.5618L33.5201 109.92H16.6593L0.268698 62.5618H14.3754L25.1233 96.7537L35.8041 62.5618H49.8436ZM52.3338 86.1401C52.3338 81.4827 53.2966 77.3402 55.2223 73.7128C57.1927 70.0406 59.9693 67.1969 63.5519 65.1816C67.1346 63.1216 71.2546 62.0916 75.912 62.0916C81.8234 62.0916 86.7943 63.6814 90.8248 66.861C94.8553 69.9958 97.4527 74.2726 98.6171 79.6913H84.4432C83.5923 77.9 82.4056 76.5341 80.883 75.5937C79.4051 74.6532 77.681 74.183 75.7105 74.183C72.6653 74.183 70.2246 75.2802 68.3885 77.4746C66.5972 79.6242 65.7015 82.5127 65.7015 86.1401C65.7015 89.8123 66.5972 92.7456 68.3885 94.94C70.2246 97.0896 72.6653 98.1644 75.7105 98.1644C77.681 98.1644 79.4051 97.6941 80.883 96.7537C82.4056 95.8133 83.5923 94.4474 84.4432 92.656H98.6171C97.4527 98.0748 94.8553 102.374 90.8248 105.554C86.7943 108.688 81.8234 110.256 75.912 110.256C71.2546 110.256 67.1346 109.248 63.5519 107.233C59.9693 105.173 57.1927 102.329 55.2223 98.7018C53.2966 95.0295 52.3338 90.8423 52.3338 86.1401ZM138.036 92.7232H127.221V103.874H114.592V92.7232H103.71V80.8333H114.592V69.6151H127.221V80.8333H138.036V92.7232ZM157.575 99.8437H172.286V109.92H144.409V62.5618H157.575V99.8437ZM190.572 62.5618V109.92H177.406V62.5618H190.572ZM241.935 109.92H228.768L211.236 83.4531V109.92H198.07V62.5618H211.236L228.768 89.3645V62.5618H241.935V109.92ZM268.176 62.5618C273.147 62.5618 277.491 63.5694 281.208 65.5847C284.97 67.5551 287.858 70.3317 289.874 73.9143C291.889 77.497 292.897 81.5946 292.897 86.2073C292.897 90.7752 291.867 94.8504 289.807 98.4331C287.791 102.016 284.903 104.837 281.141 106.897C277.424 108.912 273.102 109.92 268.176 109.92H249.435V62.5618H268.176ZM267.169 98.2987C271.02 98.2987 274.043 97.2463 276.237 95.1415C278.432 93.0367 279.529 90.0586 279.529 86.2073C279.529 82.3112 278.432 79.3107 276.237 77.2059C274.043 75.0563 271.02 73.9815 267.169 73.9815H262.601V98.2987H267.169ZM328.791 102.195H311.998L309.445 109.92H295.607L312.871 62.5618H328.053L345.249 109.92H331.344L328.791 102.195ZM325.5 92.1186L320.395 76.8028L315.356 92.1186H325.5Z" fill="url(#paint0_linear_350_120)"></path><path d="M19.3532 15.939C20.9242 15.939 22.297 16.2433 23.4717 16.8519C24.6606 17.4463 25.5734 18.3096 26.2103 19.4418C26.8613 20.5599 27.1869 21.8691 27.1869 23.3693C27.1869 24.8695 26.8613 26.1715 26.2103 27.2754C25.5734 28.3794 24.6606 29.2285 23.4717 29.823C22.297 30.4032 20.9242 30.6934 19.3532 30.6934H14.5342V15.939H19.3532ZM19.3532 28.719C21.0799 28.719 22.4032 28.252 23.3231 27.3179C24.2431 26.3838 24.703 25.0676 24.703 23.3693C24.703 21.6568 24.2431 20.3193 23.3231 19.3569C22.4032 18.3945 21.0799 17.9133 19.3532 17.9133H16.9543V28.719H19.3532ZM36.3151 30.842C34.9423 30.842 33.6756 30.5235 32.5151 29.8866C31.3687 29.2356 30.4558 28.3369 29.7765 27.1905C29.1113 26.03 28.7787 24.7279 28.7787 23.2843C28.7787 21.8407 29.1113 20.5458 29.7765 19.3994C30.4558 18.253 31.3687 17.3614 32.5151 16.7245C33.6756 16.0735 34.9423 15.7479 36.3151 15.7479C37.7021 15.7479 38.9688 16.0735 40.1152 16.7245C41.2757 17.3614 42.1886 18.253 42.8537 19.3994C43.5189 20.5458 43.8515 21.8407 43.8515 23.2843C43.8515 24.7279 43.5189 26.03 42.8537 27.1905C42.1886 28.3369 41.2757 29.2356 40.1152 29.8866C38.9688 30.5235 37.7021 30.842 36.3151 30.842ZM36.3151 28.7403C37.2917 28.7403 38.1621 28.5209 38.9263 28.0822C39.6906 27.6293 40.285 26.9924 40.7096 26.1715C41.1483 25.3365 41.3677 24.3741 41.3677 23.2843C41.3677 22.1946 41.1483 21.2392 40.7096 20.4184C40.285 19.5975 39.6906 18.9677 38.9263 18.529C38.1621 18.0902 37.2917 17.8709 36.3151 17.8709C35.3386 17.8709 34.4682 18.0902 33.7039 18.529C32.9397 18.9677 32.3382 19.5975 31.8994 20.4184C31.4748 21.2392 31.2625 22.1946 31.2625 23.2843C31.2625 24.3741 31.4748 25.3365 31.8994 26.1715C32.3382 26.9924 32.9397 27.6293 33.7039 28.0822C34.4682 28.5209 35.3386 28.7403 36.3151 28.7403ZM51.0945 30.842C50.1038 30.842 49.2122 30.6721 48.4196 30.3325C47.6271 29.9786 47.0043 29.4833 46.5514 28.8464C46.0986 28.2095 45.8721 27.4665 45.8721 26.6173H48.4621C48.5187 27.2542 48.7664 27.7779 49.2051 28.1883C49.658 28.5987 50.2878 28.804 51.0945 28.804C51.9295 28.804 52.5806 28.6058 53.0476 28.2095C53.5147 27.7991 53.7482 27.2754 53.7482 26.6386C53.7482 26.1432 53.5996 25.7399 53.3024 25.4285C53.0193 25.1171 52.6584 24.8765 52.2197 24.7067C51.7951 24.5369 51.2007 24.3529 50.4364 24.1547C49.474 23.9 48.6885 23.6452 48.08 23.3905C47.4855 23.1216 46.976 22.7111 46.5514 22.1592C46.1269 21.6072 45.9146 20.8713 45.9146 19.9513C45.9146 19.1022 46.1269 18.3591 46.5514 17.7223C46.976 17.0854 47.5704 16.5971 48.3347 16.2574C49.099 15.9178 49.9835 15.7479 50.9884 15.7479C52.4178 15.7479 53.5854 16.1088 54.4912 16.8306C55.4111 17.5383 55.9206 18.5148 56.0197 19.7603H53.3448C53.3024 19.2225 53.0476 18.7625 52.5806 18.3804C52.1135 17.9982 51.4979 17.8072 50.7336 17.8072C50.0401 17.8072 49.474 17.9841 49.0353 18.3379C48.5965 18.6917 48.3772 19.2012 48.3772 19.8664C48.3772 20.3193 48.5116 20.6944 48.7805 20.9916C49.0636 21.2746 49.4174 21.5011 49.842 21.6709C50.2666 21.8407 50.8468 22.0247 51.5828 22.2229C52.5593 22.4918 53.3519 22.7607 53.9605 23.0296C54.5832 23.2985 55.1068 23.716 55.5314 24.2821C55.9702 24.8341 56.1895 25.5771 56.1895 26.5112C56.1895 27.2613 55.9843 27.9689 55.5739 28.6341C55.1776 29.2993 54.5903 29.8371 53.8119 30.2475C53.0476 30.6438 52.1418 30.842 51.0945 30.842ZM69.3789 15.939C70.9499 15.939 72.3227 16.2433 73.4974 16.8519C74.6862 17.4463 75.5991 18.3096 76.236 19.4418C76.887 20.5599 77.2125 21.8691 77.2125 23.3693C77.2125 24.8695 76.887 26.1715 76.236 27.2754C75.5991 28.3794 74.6862 29.2285 73.4974 29.823C72.3227 30.4032 70.9499 30.6934 69.3789 30.6934H64.5599V15.939H69.3789ZM69.3789 28.719C71.1055 28.719 72.4288 28.252 73.3488 27.3179C74.2687 26.3838 74.7287 25.0676 74.7287 23.3693C74.7287 21.6568 74.2687 20.3193 73.3488 19.3569C72.4288 18.3945 71.1055 17.9133 69.3789 17.9133H66.98V28.719H69.3789ZM82.0312 15.939V30.6934H79.6111V15.939H82.0312ZM94.1037 27.6788H87.926L86.8645 30.6934H84.3383L89.6243 15.9178H92.4266L97.7127 30.6934H95.1652L94.1037 27.6788ZM93.4244 25.7045L91.0255 18.8474L88.6053 25.7045H93.4244ZM104.873 30.842C103.882 30.842 102.99 30.6721 102.198 30.3325C101.405 29.9786 100.782 29.4833 100.33 28.8464C99.8766 28.2095 99.6502 27.4665 99.6502 26.6173H102.24C102.297 27.2542 102.544 27.7779 102.983 28.1883C103.436 28.5987 104.066 28.804 104.873 28.804C105.708 28.804 106.359 28.6058 106.826 28.2095C107.293 27.7991 107.526 27.2754 107.526 26.6386C107.526 26.1432 107.378 25.7399 107.08 25.4285C106.797 25.1171 106.436 24.8765 105.998 24.7067C105.573 24.5369 104.979 24.3529 104.214 24.1547C103.252 23.9 102.467 23.6452 101.858 23.3905C101.264 23.1216 100.754 22.7111 100.33 22.1592C99.9049 21.6072 99.6927 20.8713 99.6927 19.9513C99.6927 19.1022 99.9049 18.3591 100.33 17.7223C100.754 17.0854 101.349 16.5971 102.113 16.2574C102.877 15.9178 103.762 15.7479 104.766 15.7479C106.196 15.7479 107.364 16.1088 108.269 16.8306C109.189 17.5383 109.699 18.5148 109.798 19.7603H107.123C107.08 19.2225 106.826 18.7625 106.359 18.3804C105.892 17.9982 105.276 17.8072 104.512 17.8072C103.818 17.8072 103.252 17.9841 102.813 18.3379C102.375 18.6917 102.155 19.2012 102.155 19.8664C102.155 20.3193 102.29 20.6944 102.559 20.9916C102.842 21.2746 103.195 21.5011 103.62 21.6709C104.045 21.8407 104.625 22.0247 105.361 22.2229C106.337 22.4918 107.13 22.7607 107.739 23.0296C108.361 23.2985 108.885 23.716 109.31 24.2821C109.748 24.8341 109.968 25.5771 109.968 26.5112C109.968 27.2613 109.762 27.9689 109.352 28.6341C108.956 29.2993 108.368 29.8371 107.59 30.2475C106.826 30.6438 105.92 30.842 104.873 30.842ZM118.02 22.7536C118.02 20.3052 118.43 18.3945 119.251 17.0217C120.086 15.6347 121.515 14.9412 123.539 14.9412C125.563 14.9412 126.985 15.6347 127.806 17.0217C128.641 18.3945 129.059 20.3052 129.059 22.7536C129.059 25.2304 128.641 27.1693 127.806 28.5704C126.985 29.9574 125.563 30.6509 123.539 30.6509C121.515 30.6509 120.086 29.9574 119.251 28.5704C118.43 27.1693 118.02 25.2304 118.02 22.7536ZM126.681 22.7536C126.681 21.6072 126.603 20.6378 126.448 19.8452C126.306 19.0526 126.009 18.4087 125.556 17.9133C125.103 17.4038 124.431 17.1491 123.539 17.1491C122.647 17.1491 121.975 17.4038 121.522 17.9133C121.069 18.4087 120.765 19.0526 120.609 19.8452C120.468 20.6378 120.397 21.6072 120.397 22.7536C120.397 23.9424 120.468 24.9402 120.609 25.7469C120.751 26.5536 121.048 27.2047 121.501 27.7C121.968 28.1954 122.647 28.4431 123.539 28.4431C124.431 28.4431 125.103 28.1954 125.556 27.7C126.023 27.2047 126.327 26.5536 126.469 25.7469C126.61 24.9402 126.681 23.9424 126.681 22.7536ZM134.634 26.49C134.776 27.1976 135.08 27.7354 135.547 28.1034C136.014 28.4714 136.644 28.6553 137.436 28.6553C138.441 28.6553 139.177 28.2591 139.644 27.4665C140.111 26.6739 140.345 25.3223 140.345 23.4117C140.005 23.8929 139.524 24.268 138.901 24.5369C138.293 24.7916 137.627 24.919 136.906 24.919C135.986 24.919 135.151 24.735 134.401 24.367C133.65 23.9849 133.056 23.4259 132.617 22.6899C132.193 21.9398 131.98 21.034 131.98 19.9726C131.98 18.4158 132.433 17.1774 133.339 16.2574C134.259 15.3234 135.519 14.8563 137.118 14.8563C139.043 14.8563 140.408 15.5003 141.215 16.7882C142.036 18.0619 142.446 20.0221 142.446 22.6687C142.446 24.4944 142.291 25.9875 141.979 27.1481C141.682 28.3086 141.159 29.1861 140.408 29.7805C139.658 30.3749 138.618 30.6721 137.288 30.6721C135.773 30.6721 134.606 30.2759 133.785 29.4833C132.964 28.6907 132.504 27.693 132.405 26.49H134.634ZM137.33 22.881C138.179 22.881 138.845 22.6192 139.326 22.0955C139.821 21.5577 140.069 20.85 140.069 19.9726C140.069 18.996 139.807 18.2388 139.283 17.701C138.774 17.1491 138.073 16.8731 137.182 16.8731C136.29 16.8731 135.582 17.1562 135.059 17.7223C134.549 18.2742 134.294 19.0031 134.294 19.9089C134.294 20.7722 134.542 21.4869 135.037 22.053C135.547 22.605 136.311 22.881 137.33 22.881ZM159.823 27.6788H153.646L152.584 30.6934H150.058L155.344 15.9178H158.146L163.432 30.6934H160.885L159.823 27.6788ZM159.144 25.7045L156.745 18.8474L154.325 25.7045H159.144ZM170.608 17.4251V15.2172H175.024V30.6934H172.583V17.4251H170.608ZM178.03 17.4251V15.2172H182.446V30.6934H180.005V17.4251H178.03ZM196.423 15.939C197.994 15.939 199.367 16.2433 200.541 16.8519C201.73 17.4463 202.643 18.3096 203.28 19.4418C203.931 20.5599 204.257 21.8691 204.257 23.3693C204.257 24.8695 203.931 26.1715 203.28 27.2754C202.643 28.3794 201.73 29.2285 200.541 29.823C199.367 30.4032 197.994 30.6934 196.423 30.6934H191.604V15.939H196.423ZM196.423 28.719C198.15 28.719 199.473 28.252 200.393 27.3179C201.313 26.3838 201.773 25.0676 201.773 23.3693C201.773 21.6568 201.313 20.3193 200.393 19.3569C199.473 18.3945 198.15 17.9133 196.423 17.9133H194.024V28.719H196.423ZM209.075 17.8921V22.2229H214.17V24.1972H209.075V28.719H214.807V30.6934H206.655V15.9178H214.807V17.8921H209.075ZM228.164 30.842C227.173 30.842 226.282 30.6721 225.489 30.3325C224.697 29.9786 224.074 29.4833 223.621 28.8464C223.168 28.2095 222.942 27.4665 222.942 26.6173H225.532C225.588 27.2542 225.836 27.7779 226.275 28.1883C226.728 28.5987 227.357 28.804 228.164 28.804C228.999 28.804 229.65 28.6058 230.117 28.2095C230.584 27.7991 230.818 27.2754 230.818 26.6386C230.818 26.1432 230.669 25.7399 230.372 25.4285C230.089 25.1171 229.728 24.8765 229.289 24.7067C228.865 24.5369 228.27 24.3529 227.506 24.1547C226.544 23.9 225.758 23.6452 225.15 23.3905C224.555 23.1216 224.046 22.7111 223.621 22.1592C223.197 21.6072 222.984 20.8713 222.984 19.9513C222.984 19.1022 223.197 18.3591 223.621 17.7223C224.046 17.0854 224.64 16.5971 225.404 16.2574C226.169 15.9178 227.053 15.7479 228.058 15.7479C229.487 15.7479 230.655 16.1088 231.561 16.8306C232.481 17.5383 232.99 18.5148 233.089 19.7603H230.414C230.372 19.2225 230.117 18.7625 229.65 18.3804C229.183 17.9982 228.568 17.8072 227.803 17.8072C227.11 17.8072 226.544 17.9841 226.105 18.3379C225.666 18.6917 225.447 19.2012 225.447 19.8664C225.447 20.3193 225.581 20.6944 225.85 20.9916C226.133 21.2746 226.487 21.5011 226.912 21.6709C227.336 21.8407 227.916 22.0247 228.652 22.2229C229.629 22.4918 230.422 22.7607 231.03 23.0296C231.653 23.2985 232.177 23.716 232.601 24.2821C233.04 24.8341 233.259 25.5771 233.259 26.5112C233.259 27.2613 233.054 27.9689 232.644 28.6341C232.247 29.2993 231.66 29.8371 230.882 30.2475C230.117 30.6438 229.211 30.842 228.164 30.842ZM238.535 17.8921V22.2229H243.63V24.1972H238.535V28.719H244.267V30.6934H236.115V15.9178H244.267V17.8921H238.535ZM256.78 15.939V17.9133H252.852V30.6934H250.432V17.9133H246.484V15.939H256.78ZM261.651 17.8921V22.2229H266.746V24.1972H261.651V28.719H267.383V30.6934H259.231V15.9178H267.383V17.8921H261.651ZM285.904 15.939V30.6934H283.483V20.5882L278.983 30.6934H277.306L272.784 20.5882V30.6934H270.364V15.939H272.975L278.155 27.509L283.314 15.939H285.904ZM296.982 23.1145C297.774 23.256 298.447 23.6735 298.999 24.367C299.55 25.0605 299.826 25.846 299.826 26.7235C299.826 27.4736 299.628 28.1529 299.232 28.7615C298.85 29.3559 298.291 29.83 297.555 30.1839C296.819 30.5235 295.963 30.6934 294.986 30.6934H289.084V15.939H294.71C295.715 15.939 296.578 16.1088 297.3 16.4485C298.022 16.7882 298.567 17.2481 298.935 17.8284C299.303 18.3945 299.487 19.0314 299.487 19.739C299.487 20.5882 299.26 21.2959 298.807 21.862C298.355 22.4281 297.746 22.8456 296.982 23.1145ZM291.505 22.138H294.498C295.29 22.138 295.906 21.961 296.345 21.6072C296.798 21.2392 297.024 20.7156 297.024 20.0363C297.024 19.3711 296.798 18.8545 296.345 18.4865C295.906 18.1044 295.29 17.9133 294.498 17.9133H291.505V22.138ZM294.774 28.719C295.595 28.719 296.239 28.5209 296.706 28.1246C297.173 27.7283 297.406 27.1764 297.406 26.4687C297.406 25.7469 297.159 25.1737 296.663 24.7492C296.168 24.3246 295.51 24.1123 294.689 24.1123H291.505V28.719H294.774ZM310.12 30.6934L306.723 24.7916H304.877V30.6934H302.456V15.939H307.551C308.684 15.939 309.639 16.1371 310.417 16.5334C311.21 16.9297 311.797 17.4604 312.179 18.1256C312.576 18.7908 312.774 19.5338 312.774 20.3547C312.774 21.3171 312.491 22.1946 311.925 22.9871C311.373 23.7655 310.516 24.2963 309.356 24.5793L313.007 30.6934H310.12ZM304.877 22.8598H307.551C308.457 22.8598 309.137 22.6333 309.589 22.1804C310.056 21.7275 310.29 21.119 310.29 20.3547C310.29 19.5904 310.064 18.996 309.611 18.5714C309.158 18.1327 308.471 17.9133 307.551 17.9133H304.877V22.8598ZM322.6 30.842C321.227 30.842 319.96 30.5235 318.799 29.8866C317.653 29.2356 316.74 28.3369 316.061 27.1905C315.396 26.03 315.063 24.7279 315.063 23.2843C315.063 21.8407 315.396 20.5458 316.061 19.3994C316.74 18.253 317.653 17.3614 318.799 16.7245C319.96 16.0735 321.227 15.7479 322.6 15.7479C323.987 15.7479 325.253 16.0735 326.4 16.7245C327.56 17.3614 328.473 18.253 329.138 19.3994C329.803 20.5458 330.136 21.8407 330.136 23.2843C330.136 24.7279 329.803 26.03 329.138 27.1905C328.473 28.3369 327.56 29.2356 326.4 29.8866C325.253 30.5235 323.987 30.842 322.6 30.842ZM322.6 28.7403C323.576 28.7403 324.446 28.5209 325.211 28.0822C325.975 27.6293 326.569 26.9924 326.994 26.1715C327.433 25.3365 327.652 24.3741 327.652 23.2843C327.652 22.1946 327.433 21.2392 326.994 20.4184C326.569 19.5975 325.975 18.9677 325.211 18.529C324.446 18.0902 323.576 17.8709 322.6 17.8709C321.623 17.8709 320.753 18.0902 319.988 18.529C319.224 18.9677 318.623 19.5975 318.184 20.4184C317.759 21.2392 317.547 22.1946 317.547 23.2843C317.547 24.3741 317.759 25.3365 318.184 26.1715C318.623 26.9924 319.224 27.6293 319.988 28.0822C320.753 28.5209 321.623 28.7403 322.6 28.7403Z" fill="white"></path><rect x="4.14605" y="0.460507" width="337.091" height="45.1297" stroke="url(#paint1_linear_350_120)" stroke-width="0.921014"></rect><defs><linearGradient id="paint0_linear_350_120" x1="119.342" y1="98.8851" x2="397.341" y2="171.136" gradientUnits="userSpaceOnUse"><stop stop-color="#C85BFC"></stop><stop offset="1" stop-color="#2D0542"></stop></linearGradient><linearGradient id="paint1_linear_350_120" x1="120.273" y1="28.7088" x2="341.575" y2="151.942" gradientUnits="userSpaceOnUse"><stop stop-color="#C85BFC"></stop><stop offset="1" stop-color="#8000C4"></stop></linearGradient></defs></svg>